<svg xmlns="http://www.w3.org/2000/svg" xmlns:xlink="http://www.w3.org/1999/xlink" viewBox="0 0 336.02 59.42"><defs><style>.cls-1{fill:none;}.cls-2{clip-path:url(#clip-path);}.cls-3{fill:#008dc3;}.cls-4{fill:#fac395;}.cls-5{fill:#010101;}.cls-6{fill:#fcc000;}.cls-7{fill:#f9b100;}.cls-8{fill:#f7a700;}.cls-9{fill:#e7267b;}.cls-10{fill:#e61277;}.cls-11{fill:#d30c7b;}.cls-12{fill:#0094d2;}.cls-13{fill:#d0d0d0;}.cls-14{fill:#b6babb;}.cls-15{opacity:0.7;}.cls-16{fill:#fff;}.cls-17,.cls-18,.cls-19{fill:#52504f;}.cls-18,.cls-19{font-size:0.6px;font-family:Montserrat-Bold, Montserrat;font-weight:700;}.cls-18{letter-spacing:0.2em;}.cls-19{letter-spacing:0.2em;}.cls-20{fill:#5784ba;}.cls-21{fill:#f6f6d0;}.cls-22{fill:#70c0a5;}</style><clipPath id="clip-path"><rect class="cls-1" x="11.13" y="14.93" width="76.4" height="42.42" rx="9.12"/></clipPath></defs><g id="Layer_2" data-name="Layer 2"><g id="OBJECTS"><g class="cls-2"><polygon class="cls-3" points="19.08 56.63 19.45 58.43 29.55 40.03 28.51 39.46 19.08 56.63"/><polygon class="cls-4" points="39.98 43.04 47.13 43.04 43.56 29.56 39.98 43.04"/><polygon class="cls-5" points="44.71 33.91 43.54 28.93 42.4 33.91 44.71 33.91"/><rect class="cls-6" x="39.98" y="43.04" width="2.4" height="14.31"/><rect class="cls-7" x="42.34" y="43.04" width="2.4" height="14.31"/><rect class="cls-8" x="44.74" y="43.04" width="2.4" height="14.31"/><polygon class="cls-4" points="78.39 48.6 82.83 50.3 84.02 40.55 78.39 48.6"/><polygon class="cls-5" points="83.64 43.7 84.17 40.14 82.2 43.15 83.64 43.7"/><rect class="cls-9" x="76.53" y="48.55" width="1.59" height="10.11" transform="translate(24.29 -24.11) rotate(20.96)"/><rect class="cls-10" x="78" y="49.11" width="1.59" height="10.11" transform="translate(24.59 -24.6) rotate(20.96)"/><rect class="cls-11" x="79.48" y="49.68" width="1.59" height="10.11" transform="translate(24.89 -25.1) rotate(20.96)"/><path class="cls-5" d="M32.3,29.69c.47.86.41,2.2-.64,2.48s-1.87.47-2.49-.07a1.87,1.87,0,0,1-.6-1,5.21,5.21,0,0,1,.19-2,19.92,19.92,0,0,0,.3-2.55c1,.87,1.36,1.16,2.29,2.08a7,7,0,0,1,.86.94Z"/><path class="cls-12" d="M30.61,37.41a21,21,0,0,0,.08,2.68,32.83,32.83,0,0,0,1.43,7c1.73,5.55,5.53,16.33,8.36,24.26l2.77,8.15.44-.11L42,71c-1.4-8.3-3.35-19.56-4.56-25.25a33.7,33.7,0,0,0-2.26-7A23.77,23.77,0,0,0,34,36.52Z"/><path class="cls-3" d="M35.15,38.75A23.77,23.77,0,0,0,34,36.52l-2.23-3.29c2.11,8.67,4.89,21,7,29.72,1,4.09,2.23,8,3.59,12,.5,1.46,1,3,1.37,4.52h0L42,71c-1.4-8.3-3.35-19.56-4.56-25.25A33.7,33.7,0,0,0,35.15,38.75Z"/><path class="cls-13" d="M30.66,39.69l4.4-1.14a70.23,70.23,0,0,0-2.9-6.67l-2.09.55Z"/><path class="cls-14" d="M31.46,32.12c.13.51,1.17,5.15,1.73,6.92l1.87-.49a70.23,70.23,0,0,0-2.9-6.67l-.71.19Z"/><path class="cls-5" d="M34.86,34.51c-.09.67.29,1.53,1,1.45s1.33-.17,1.6-.68a1.33,1.33,0,0,0,.12-.83A3.73,3.73,0,0,0,37,33.19a13.2,13.2,0,0,1-.85-1.57c-.39.8-.58,1.09-.95,1.93a4.19,4.19,0,0,0-.32.83A.51.51,0,0,0,34.86,34.51Z"/><path class="cls-10" d="M37.93,39.09a18.6,18.6,0,0,1,.63,1.77,23.72,23.72,0,0,1,.86,4.94c.29,4.06.56,12,.74,17.91l.27,6-.31,0-1-5.92c-1.2-5.75-2.8-13.58-3.46-17.59a23.07,23.07,0,0,1-.32-5.13,15.53,15.53,0,0,1,.2-1.74Z"/><path class="cls-9" d="M35.31,41.12a15.53,15.53,0,0,1,.2-1.74l.61-2.71c.84,6.18,2.18,14.92,3.05,21.1.41,2.91.59,5.78.71,8.7,0,1.08.12,2.19.26,3.29h0l-1-5.92c-1.2-5.75-2.8-13.58-3.46-17.59A23.07,23.07,0,0,1,35.31,41.12Z"/><path class="cls-13" d="M38.48,40.6,35.32,41a47.68,47.68,0,0,1,.19-5.07l1.5-.18Z"/><path class="cls-14" d="M36,35.88c0,.36.55,3.64.64,4.94L35.32,41a47.68,47.68,0,0,1,.19-5.07l.51-.06Z"/><rect class="cls-9" x="16.84" y="43.11" width="15.06" height="15.06" transform="translate(-22.28 19.3) rotate(-30.41)"/><rect class="cls-10" x="14.24" y="43.81" width="15.06" height="4.78" transform="translate(-20.39 17.38) rotate(-30.41)"/><rect class="cls-6" x="20.25" y="43.3" width="15.06" height="15.06" transform="translate(-21.91 21.06) rotate(-30.41)"/><rect class="cls-7" x="17.65" y="44.01" width="15.06" height="4.78" transform="translate(-20.02 19.13) rotate(-30.41)"/><rect class="cls-5" x="51.26" y="40.12" width="2.38" height="12.96" transform="translate(5.99 -5.97) rotate(6.91)"/><path class="cls-12" d="M50.53,43.25l-1.45,12a2.31,2.31,0,1,0,4.58.55l1.45-12Z"/><path class="cls-3" d="M52.89,43.53,51.16,57.78a2.3,2.3,0,0,0,2.5-2l1.45-12Z"/><circle class="cls-5" cx="53.99" cy="33.89" r="7.04" transform="translate(1.81 70.51) rotate(-67.18)"/><path class="cls-13" d="M59.62,34.57a5.67,5.67,0,1,1-4.95-6.31A5.67,5.67,0,0,1,59.62,34.57Z"/><g class="cls-15"><path class="cls-16" d="M55.77,30a3.64,3.64,0,0,1,1.93,1.93A4.63,4.63,0,0,1,58,33.33a3.07,3.07,0,0,1,0,.74,3.42,3.42,0,0,0-.13.71.17.17,0,0,0,.27.1,1.48,1.48,0,0,0,.29-.68,4,4,0,0,0,.11-.84,3.45,3.45,0,0,0-.36-1.64,4,4,0,0,0-2.27-2,.15.15,0,0,0-.11.27Z"/></g><rect class="cls-13" x="57.24" y="36.09" width="13.9" height="25.27" rx="2.48" transform="translate(16.61 -16.32) rotate(16.61)"/><path class="cls-14" d="M61,59.55h0a.63.63,0,0,1-.42-.79l5.85-19.63a.64.64,0,0,1,.79-.43h0a.64.64,0,0,1,.43.79L61.75,59.13A.63.63,0,0,1,61,59.55Z"/><path class="cls-5" d="M64.72,39.38a1.64,1.64,0,1,1-1.1-2A1.64,1.64,0,0,1,64.72,39.38Z"/><path class="cls-10" d="M63,45.3a1.64,1.64,0,1,1-1.11-2A1.65,1.65,0,0,1,63,45.3Z"/><path class="cls-3" d="M61.19,51.21a1.64,1.64,0,1,1-1.1-2A1.64,1.64,0,0,1,61.19,51.21Z"/><path class="cls-6" d="M59.52,56.82a1.64,1.64,0,1,1-1.11-2A1.65,1.65,0,0,1,59.52,56.82Z"/><path class="cls-3" d="M72.14,41.6a1.65,1.65,0,0,1-2,1.1A1.64,1.64,0,0,1,71,39.55,1.66,1.66,0,0,1,72.14,41.6Z"/><path class="cls-6" d="M70.37,47.51a1.64,1.64,0,1,1-1.1-2A1.64,1.64,0,0,1,70.37,47.51Z"/><path class="cls-10" d="M68.61,53.42a1.64,1.64,0,1,1-1.11-2A1.65,1.65,0,0,1,68.61,53.42Z"/><path class="cls-5" d="M66.93,59a1.64,1.64,0,1,1-1.1-2A1.64,1.64,0,0,1,66.93,59Z"/><line class="cls-17" x1="70.71" y1="55.32" x2="70.69" y2="55.37"/><rect class="cls-17" x="70.12" y="55.44" width="0.51" height="0.05" transform="translate(24.5 -21.51) rotate(20.96)"/><rect class="cls-17" x="70.03" y="55.66" width="0.51" height="0.05" transform="translate(24.57 -21.46) rotate(20.96)"/><rect class="cls-17" x="69.99" y="55.77" width="0.51" height="0.05" transform="translate(24.61 -21.44) rotate(20.96)"/><rect class="cls-17" x="69.95" y="55.87" width="0.51" height="0.05" transform="translate(24.65 -21.42) rotate(20.96)"/><rect class="cls-17" x="69.91" y="55.99" width="0.51" height="0.05" transform="translate(24.68 -21.39) rotate(20.96)"/><rect class="cls-17" x="70.07" y="55.59" width="0.75" height="0.05" transform="translate(24.55 -21.52) rotate(20.96)"/><rect class="cls-17" x="69.84" y="56.18" width="0.99" height="0.11" transform="translate(24.77 -21.44) rotate(20.96)"/><rect class="cls-17" x="69.8" y="56.26" width="0.51" height="0.05" transform="translate(24.77 -21.33) rotate(20.96)"/><rect class="cls-17" x="69.76" y="56.38" width="0.51" height="0.05" transform="translate(24.81 -21.32) rotate(20.96)"/><rect class="cls-17" x="69.72" y="56.48" width="0.51" height="0.05" transform="translate(24.85 -21.29) rotate(20.96)"/><rect class="cls-17" x="69.67" y="56.59" width="0.51" height="0.05" transform="translate(24.88 -21.27) rotate(20.96)"/><rect class="cls-17" x="69.59" y="56.81" width="0.51" height="0.05" transform="translate(24.96 -21.23) rotate(20.96)"/><rect class="cls-17" x="69.55" y="56.92" width="0.51" height="0.05" transform="translate(24.99 -21.2) rotate(20.96)"/><rect class="cls-17" x="69.51" y="57.02" width="0.51" height="0.05" transform="translate(25.02 -21.18) rotate(20.96)"/><rect class="cls-17" x="69.47" y="57.14" width="0.51" height="0.05" transform="translate(25.07 -21.16) rotate(20.96)"/><rect class="cls-17" x="69.63" y="56.74" width="0.75" height="0.05" transform="translate(24.94 -21.29) rotate(20.96)"/><rect class="cls-17" x="69.4" y="57.33" width="0.99" height="0.11" transform="translate(25.15 -21.21) rotate(20.96)"/><rect class="cls-17" x="69.36" y="57.41" width="0.51" height="0.05" transform="translate(25.16 -21.11) rotate(20.96)"/><rect class="cls-17" x="69.32" y="57.52" width="0.51" height="0.05" transform="translate(25.19 -21.08) rotate(20.96)"/><rect class="cls-17" x="69.28" y="57.63" width="0.51" height="0.05" transform="translate(25.22 -21.06) rotate(20.96)"/><rect class="cls-17" x="69.24" y="57.74" width="0.51" height="0.05" transform="translate(25.27 -21.04) rotate(20.96)"/><rect class="cls-17" x="69.15" y="57.95" width="0.51" height="0.05" transform="translate(25.33 -20.99) rotate(20.96)"/><rect class="cls-17" x="69.11" y="58.07" width="0.51" height="0.05" transform="translate(25.37 -20.97) rotate(20.96)"/><rect class="cls-17" x="69.07" y="58.17" width="0.51" height="0.05" transform="translate(25.41 -20.95) rotate(20.96)"/><rect class="cls-17" x="69.03" y="58.28" width="0.51" height="0.05" transform="translate(25.44 -20.92) rotate(20.96)"/><rect class="cls-17" x="69.19" y="57.89" width="0.75" height="0.05" transform="translate(25.32 -21.05) rotate(20.96)"/><rect class="cls-17" x="68.96" y="58.48" width="0.99" height="0.11" transform="translate(25.54 -20.97) rotate(20.96)"/><text class="cls-18" transform="translate(70.93 56.57) rotate(20.96)">18</text><text class="cls-18" transform="translate(70.5 57.71) rotate(20.96)">19</text><text class="cls-19" transform="translate(70.06 58.85) rotate(20.96)">20</text></g><path class="cls-5" d="M78.4,59.42H20.25A11.2,11.2,0,0,1,9.06,48.23V24.05A11.2,11.2,0,0,1,20.25,12.86H78.4A11.2,11.2,0,0,1,89.59,24.05V48.23A11.2,11.2,0,0,1,78.4,59.42ZM20.25,17a7.07,7.07,0,0,0-7.06,7.06V48.23a7.06,7.06,0,0,0,7.06,7.05H78.4a7.06,7.06,0,0,0,7.06-7.05V24.05A7.07,7.07,0,0,0,78.4,17Z"/><path class="cls-20" d="M39.42,16.61c0,4.67,4.44,8.45,9.87,8.45s9.84-3.78,9.87-8.45Z"/><polygon class="cls-20" points="39.42 16.61 59.16 16.61 54 0 44.59 0 39.42 16.61"/><path class="cls-21" d="M59.16,16.61c0,4.67,4.44,8.45,9.88,8.45s9.83-3.78,9.87-8.45Z"/><polygon class="cls-21" points="59.16 16.61 78.91 16.61 63.59 0 54 0 59.16 16.61"/><path class="cls-22" d="M78.91,16.61c0,4.67,4.44,8.45,9.87,8.45s9.83-3.78,9.87-8.45Z"/><polygon class="cls-22" points="78.91 16.61 98.65 16.61 73.04 0 63.45 0 78.91 16.61"/><path class="cls-21" d="M19.74,16.61c0,4.67-4.44,8.45-9.87,8.45S0,21.28,0,16.61Z"/><polygon class="cls-21" points="19.74 16.61 0 16.61 25.61 0 35.2 0 19.74 16.61"/><path class="cls-22" d="M19.68,16.61c0,4.67,4.44,8.45,9.87,8.45s9.83-3.78,9.87-8.45Z"/><polygon class="cls-22" points="19.68 16.61 39.42 16.61 44.59 0 35.17 0 19.68 16.61"/></g><g id="TEXTS"><path class="cls-16" d="M117.47,47.29a2.09,2.09,0,0,1-.72.12,1.37,1.37,0,0,1-.74-.17,1.82,1.82,0,0,1-.48-.48,2,2,0,0,0-.24-.25,3.71,3.71,0,0,1-.43-.63l-.28-.49a.43.43,0,0,0-.12-.26.28.28,0,0,1-.1-.18v-.07a3.76,3.76,0,0,1-.2-.8,12.37,12.37,0,0,1-.11-1.91c0-.55,0-1,0-1.41,0-.09,0-.16,0-.2a.26.26,0,0,0,0-.14.21.21,0,0,1,0-.12.42.42,0,0,1,.11-.34s.09-.18.17-.53a3.67,3.67,0,0,0,.11-.75h0a9,9,0,0,1,.33-1.44,9.52,9.52,0,0,1,.46-1.41v0c.23-.64.51-1.39.86-2.25a9.91,9.91,0,0,1,.92-1.86,1.49,1.49,0,0,0,.15-.29v0a1.1,1.1,0,0,1,.21-.46.84.84,0,0,0,.08-.14s0,0,0,0,0,0,0,0,0,0,.06-.08c.2-.34.7-1.23,1.49-2.66a4.74,4.74,0,0,1,.8-1.35,3.44,3.44,0,0,0,.25-.38,2.71,2.71,0,0,1,.36-.68,2.53,2.53,0,0,1,.41-.57h0s0-.06,0-.18,0-.07,0-.07a2.11,2.11,0,0,0-.48.42,1.77,1.77,0,0,1-.4.36,1.64,1.64,0,0,1,.35-.42,2.12,2.12,0,0,0,.38-.46v0s-.23.16-.55.49a2.55,2.55,0,0,0-.48.55,0,0,0,0,0,0,0l.08-.06a.34.34,0,0,1,.13-.08h0s-.05.09-.14.19-.15.15-.17.15,0,0,0,0l0-.09,0-.06s0,0,0,0a8.75,8.75,0,0,0-.87.75c-.54.49-1.07,1-1.57,1.49a4,4,0,0,0-.76.83h0a.13.13,0,0,1-.07.11l0,0a0,0,0,0,1,0,0l0,0a.2.2,0,0,0,0-.08,0,0,0,0,0,0,0,3.93,3.93,0,0,0-.63.49,2.4,2.4,0,0,1-.52.43s0,0,0,0a.18.18,0,0,0,0,.06.39.39,0,0,1,0,.06s0,0,0,0l0,0h0a.91.91,0,0,0-.38.22c-.19.15-.28.25-.28.32v0h-.1a.37.37,0,0,0-.23.11,13.71,13.71,0,0,1-1.59,1.06,14.18,14.18,0,0,1-1.4.8h0a1,1,0,0,0-.28.05q-.15,0-.15.09c0,.05-.16.11-.49.18a5.27,5.27,0,0,1-.91.09,2.63,2.63,0,0,1-.83-.14c-.27-.09-.59-.21-1-.37l-.48-.21A2.23,2.23,0,0,1,105.7,31a4.29,4.29,0,0,1-.42-2A12.62,12.62,0,0,1,106,25.1a33.85,33.85,0,0,1,2.56-5.46q1-1.79,2.6-4.06t2.94-3.9c.9-1.07,1.45-1.61,1.67-1.61s.28.1.45.32a1,1,0,0,1,.25.56.63.63,0,0,0,.16.28,5.46,5.46,0,0,1,.43.69c.1.27.18.41.24.41h.07s.06,0,.06.11a3.62,3.62,0,0,1-.32,1.1,4.17,4.17,0,0,1-.61,1.11,2,2,0,0,0-.22.32,1.37,1.37,0,0,0-.17.32v0a2.1,2.1,0,0,1-.29.38l-.21.26s-.06,0-.12,0h0s0,0,0,0l0,0s0,.06,0,.08-.08.19-.25.39-.27.3-.32.3h0s0,0,0,0,0,0,0,0v0a.14.14,0,0,1,0,.06,3.23,3.23,0,0,1-.48.82,2,2,0,0,0-.18.28h0a.45.45,0,0,1-.1.14.59.59,0,0,0-.18.34.2.2,0,0,0,0,.07v0s0,0,0,0,0,0,0,0h0c-.07,0-.15.06-.25.2a.66.66,0,0,0-.15.26s0,0,0,0,.08-.06.2-.2l.11-.14a1.76,1.76,0,0,1-.33.48.83.83,0,0,0-.15.24q-.09.21-.15.21h0s-.14.07-.25.21l0,0,.07-.06c.11-.08.17-.12.2-.12s0,0,0,0a1.77,1.77,0,0,1-.24.4s0,.05,0,.06l-.07-.15c0-.05,0-.07,0-.07v0s0,.07,0,.14a.66.66,0,0,1,0,.13s0,0,0,0h-.06l0,0h0v0a.13.13,0,0,1,0,.06.57.57,0,0,1-.14.31c-.09.13-.17.2-.22.2h0a.19.19,0,0,0-.16.1c-.05.07-.11.18-.2.32l0,.08.09-.1a2,2,0,0,1,.32-.35v0a11.57,11.57,0,0,1-.79,1.36,32.37,32.37,0,0,0-3.27,6.21,4.15,4.15,0,0,1-.13.4c-.12.35-.22.67-.29,1a3.71,3.71,0,0,0-.1.88c0,.16,0,.24.05.24s.13-.11.16-.33a7.69,7.69,0,0,1,.38-1.89,15.23,15.23,0,0,1,.73-2,3,3,0,0,1,.55-1,.92.92,0,0,0,.14-.29c0-.17.09-.26.12-.26s0,0,.06-.08a1.14,1.14,0,0,1,.2-.42c.46-.79.89-1.48,1.28-2.08A12.25,12.25,0,0,1,112.6,21s.26-.39.79-1.15a2.13,2.13,0,0,1,.34-.55q.31-.45.39-.45h0l0,0a12,12,0,0,1,.65-1c.71-1,1.33-2,1.86-2.81a12.82,12.82,0,0,0,1.15-2.21.18.18,0,0,0,0,.06,2.53,2.53,0,0,1,.06.42,1,1,0,0,1-.09.37l0,.09s0,0,0,0h0a9.29,9.29,0,0,1-1,1.77c-.66,1.06-1.39,2.19-2.2,3.38-1.7,2.47-3,4.45-3.87,5.92a25.13,25.13,0,0,0-1.82,3.54,12.3,12.3,0,0,0-.7,2.66l.08,0,.14,0,.09,0-.09.06c-.15.1-.22.17-.22.22s.06.09.18.09a4.91,4.91,0,0,0,2.13-.88A33.24,33.24,0,0,0,114,27.87c1.38-1.09,2.87-2.38,4.49-3.87,1.06-1,1.73-1.57,2-1.77l.29-.25a2.75,2.75,0,0,1,.38-.34,25.1,25.1,0,0,0,1.89-1.73c.76-.71,1.34-1.26,1.75-1.63a3.24,3.24,0,0,1,.68-.56h0s.06,0,.1-.13.07-.14.1-.14h0l0,0s0,0,0-.1,0-.09,0-.09l0,0s0,0,0,0,0,0,0-.08.19-.3.57-.68a2.59,2.59,0,0,1,.69-.56h.06l0,0v-.05a.36.36,0,0,1,.14-.21c.09-.09.16-.14.22-.14h.07l0,0v0h0c0-.06.08-.17.24-.32.38-.42.81-.88,1.27-1.4q3.51-4,4.47-4l.18,0h.1s0,0,0,0l0,0a0,0,0,0,0,0,0H134l.07,0c.05,0,.09,0,.14.13s.09.11.14.11.27.2.51.59a5.92,5.92,0,0,1,.56,1.17c0,.07.11.12.25.14a.41.41,0,0,1,.22.07.27.27,0,0,1,.08.22,3.65,3.65,0,0,1-.86,1.69l-1.36,1.86c-.81,1.09-1.29,1.74-1.45,1.92a1.43,1.43,0,0,0-.19.26h0s0,.08-.14.17-.24.24-.24.27a2.08,2.08,0,0,1-.42.59,1.85,1.85,0,0,0-.35.48.08.08,0,0,0,0,0h0s0,0,0,0a.2.2,0,0,0-.17.15,4.47,4.47,0,0,1-.38.51,2.12,2.12,0,0,0-.41.56s0,.08-.08.13a2,2,0,0,0-.44.47c-.22.29-.35.44-.39.44h0a.31.31,0,0,1,0-.12.09.09,0,0,0,0-.05s0,0,0,0a.25.25,0,0,0-.1.2s0,.07.06.07l0,0h0s0,0-.05.06-.14.13-.14.15,0,0,0,0h0a2.54,2.54,0,0,1-.29.36q-.28.33-.39.33h-.05s0,0,0,0a.18.18,0,0,0,0,.06v.07c0,.07,0,.1-.1.11l0,0a0,0,0,0,0,0,0v0s-.07.14-.22.3a.84.84,0,0,0-.16.22v0h0s0,.08-.14.11a.29.29,0,0,1-.16.06h0v0l0,0s0,.06,0,.12a.25.25,0,0,1,0,.08c0,.06,0,.09-.1.09s0,0,0,0l0,0a0,0,0,0,1,0,0s-.06.13-.18.26-.21.2-.26.2h0s-.06,0-.1.11h0l0,0,.1,0h0s-.05.1-.15.2-.17.17-.17.22v0l0,0c0,.06-.07.15-.19.26s-.21.18-.28.18h-.06l0,0,0,0a.61.61,0,0,1-.14.32c-.1.13-.17.19-.23.19h-.05a.25.25,0,0,0,0,.08v.05s0,.06,0,.07a.52.52,0,0,0-.23.25,3.68,3.68,0,0,1-.34.5,5,5,0,0,0-.36.49,16.47,16.47,0,0,1-1.37,1.85l0,0s0,0,0,0,0,0,0,0a3.91,3.91,0,0,1-.71,1l-.18.22h0l0,0,0,0q0,.07-.36.42v0a3.18,3.18,0,0,1-.38.69,2.74,2.74,0,0,1-.52.66.41.41,0,0,0-.11.19.8.8,0,0,1-.2.4c-.1.11-.56.85-1.37,2.2-.37.63-.58,1-.65,1.07a6,6,0,0,0-.56,1l-1.17,2.44-.44.92a0,0,0,0,0,0,0l0,.07a.13.13,0,0,1,0,.06s0,0-.06.06,0,0,0,0v.05s0,0,0,0-.07.29-.21.82a8.22,8.22,0,0,1-.24.84,5.31,5.31,0,0,0-.12,1.58v.91l.14.24a9.23,9.23,0,0,0,.64,1,.66.66,0,0,0,.5.25l.14,0h.14c.08,0,.12,0,.12,0S117.69,47.21,117.47,47.29Z"/><path class="cls-16" d="M132.11,43.58a5.06,5.06,0,0,1-1.59.3,1.63,1.63,0,0,1-.66-.1,2.4,2.4,0,0,1-.58-.35,7.9,7.9,0,0,0-.91-.58A3,3,0,0,1,127,41.53a4.52,4.52,0,0,1-.45-2.08,8.21,8.21,0,0,1,.7-3.12A16.08,16.08,0,0,1,129.19,33a16.64,16.64,0,0,1,2.72-2.89c.27-.23.41-.37.41-.42s0,0,0,0,0,0,.11,0,.14,0,.15-.06a2.09,2.09,0,0,1,.68-.39,3.14,3.14,0,0,1,.81-.29.62.62,0,0,1,.47.24,4,4,0,0,1,.48.81,1.88,1.88,0,0,0,.1.19c.1.22.18.38.22.5a1,1,0,0,1,.06.32,1,1,0,0,1-.23.57q-.24.32-1,1.11l-.28.31A31.15,31.15,0,0,0,130,37.82a7.67,7.67,0,0,0-1.35,3.64,2.23,2.23,0,0,0,.06.54c0,.17.08.25.12.25s.06-.06.06-.17a1.75,1.75,0,0,0,0-.25,3.15,3.15,0,0,1-.06-.55,5.39,5.39,0,0,1,.68-2.37,16.89,16.89,0,0,1,1.49-2.4c.53-.72,1.09-1.43,1.66-2.12.17-.2.26-.33.29-.37s.52-.59,1.31-1.43a17.35,17.35,0,0,0,1.34-1.49c0-.08,0-.13,0-.13s0,0,.07.06a.29.29,0,0,1,0,.14,1,1,0,0,1-.25.54c-.16.21-.56.68-1.2,1.42L133,34.6a24.55,24.55,0,0,0-2.87,4,6.91,6.91,0,0,0-1.07,3,1.78,1.78,0,0,0,.13.64l0,.1a7.06,7.06,0,0,0,1.84-.47A9.45,9.45,0,0,0,133,40.72a14.83,14.83,0,0,0,1.54-1.37,4.67,4.67,0,0,0,.94-1.05v0h0s0,0,.05,0,.12,0,.16-.14,0-.08,0-.08a.28.28,0,0,0,.19-.07c.06-.05.09-.09.09-.14s0,0,0,0l-.07,0h0a1.75,1.75,0,0,1,.3-.43c.2-.25.32-.37.36-.37l0,.06q-.08.12-.33.45a2.77,2.77,0,0,0-.17.23s.19-.13.42-.41a1.35,1.35,0,0,0,.35-.57,0,0,0,0,0,0,0,.58.58,0,0,0-.15.1l-.06.06.06-.07c.09-.13.16-.19.21-.19h0s0,0,0,0,.3-.25.56-.73a12,12,0,0,0,.73-1.61,4.19,4.19,0,0,0,.33-1.18.33.33,0,0,0-.06-.21,1.57,1.57,0,0,0-.25-.21,13.87,13.87,0,0,1-1.33-.88.73.73,0,0,1-.29-.44,1.6,1.6,0,0,0-.17-.42,1.45,1.45,0,0,1-.18-.56.53.53,0,0,1,.25-.45,2.86,2.86,0,0,1,.86-.37,19,19,0,0,1,5.72-1,10.53,10.53,0,0,1,3,.38,4.54,4.54,0,0,1,2,1.13,3.12,3.12,0,0,1,.61.89,2.39,2.39,0,0,1,.23.94.82.82,0,0,1-.09.4c-.06.12-.12.17-.18.17l-.08-.18,0-.08v0a3.17,3.17,0,0,0-.08-.4.2.2,0,0,1,0-.09v-.05s0-.05,0-.05a1.31,1.31,0,0,1-.41-.26.9.9,0,0,0-.3-.19s0,0,0,0l0,0q-.09-.18-.21-.18h0a.07.07,0,0,0,0,.05l0,.05h0a2.25,2.25,0,0,1-.7-.28.19.19,0,0,0-.13-.07h0a7.51,7.51,0,0,1-1.73.09c-1,0-1.84,0-2.44.07s-1.23.14-1.89.25l-.66.1a2.22,2.22,0,0,0-.58.12.63.63,0,0,1-.25.07c-.11,0-.17,0-.17.1a.93.93,0,0,0,.15.35,5.11,5.11,0,0,1,.49,1.53,9.74,9.74,0,0,1,.23,1.83,1.87,1.87,0,0,1,0,.34c0,.11,0,.17-.05.17l0-.25c0-.1,0-.27,0-.52s0-.34,0-.4,0-.22-.06-.22-.06,0-.08.13a1.55,1.55,0,0,0,0,.33A6.82,6.82,0,0,1,138,38.4a3.13,3.13,0,0,0-.28.43.73.73,0,0,0-.11.28v0s0,0,0,0h-.09a.26.26,0,0,0-.19.11.35.35,0,0,0-.09.21.11.11,0,0,0,0,.08l0,0s0,0,0,0h0c-.08,0-.2.1-.36.29a.85.85,0,0,0-.25.43s0,0,0,0-.22.15-.48.44-.31.33-.36.34-.09,0-.09,0h0c0,.06-.24.28-.7.67a13.85,13.85,0,0,1-1.26,1A6.67,6.67,0,0,1,132.11,43.58Z"/><path class="cls-16" d="M158.3,43.75A4.35,4.35,0,0,1,155.91,42a5.23,5.23,0,0,1-.86-3c0-.22,0-.5,0-.85a5.33,5.33,0,0,1,0-.57,10.25,10.25,0,0,1,.43-1.69c.08-.28.12-.43.12-.44h0c-.06,0-.15.16-.28.48a6.74,6.74,0,0,0-.36,1.24,8.71,8.71,0,0,0-.15,1.67,6,6,0,0,0,0,.69,3.18,3.18,0,0,1,0,.36c0,.12,0,.18,0,.18s-.13-.47-.13-1.41a11.18,11.18,0,0,1,.17-1.86,2.45,2.45,0,0,0,0-.34c0-.06,0-.1,0-.1s-.25.18-.52.54-.37.46-.42.46h0l0,0s0,0,0,0v.06a.67.67,0,0,1-.16.36c-.11.14-.19.21-.26.21s-.07,0-.07,0l.06.07s.05,0,.05.07A8.46,8.46,0,0,1,152.06,40a11.41,11.41,0,0,1-1.67,1.61h0s0,0,0,0-.27.31-.82.59a3.16,3.16,0,0,1-1.15.42,3,3,0,0,1-1-.4,4.7,4.7,0,0,1-1-.68,2.57,2.57,0,0,1-.54-1.05,5.14,5.14,0,0,1-.2-1.48,1.3,1.3,0,0,1,0-.34l.06.05s.05.07.06.07,0-.06,0-.17,0-.19-.05-.19l-.06,0s-.07-.07-.07-.21a8,8,0,0,1,.77-2.8,15.82,15.82,0,0,1,1.78-3.21l1.33-1.69a10.87,10.87,0,0,1,1-1.22h0a.32.32,0,0,0,.13-.07l.07,0a4.5,4.5,0,0,1-.38.46,32.27,32.27,0,0,0-2.91,3.84,12.12,12.12,0,0,0-.76,1.38,9.84,9.84,0,0,0-.37,1,6,6,0,0,1-.24.72c-.05.13-.13.4-.24.83a5,5,0,0,0-.15.77c0,.08,0,.13,0,.13s.11-.13.16-.37a9.8,9.8,0,0,1,1-3.06,25.56,25.56,0,0,1,2.37-3.7,20.72,20.72,0,0,1,1.54-1.87,1.42,1.42,0,0,1,.88-.55c.25,0,.52.28.82.84a3,3,0,0,1,.45,1.23,1.17,1.17,0,0,1-.21.61,14.19,14.19,0,0,1-.82,1.17l-.13.17a35.47,35.47,0,0,0-3.37,5.26,8.67,8.67,0,0,0-1,3.51,3.68,3.68,0,0,0,1.43-.46,9.71,9.71,0,0,0,1.83-1.45c.39-.36,1-1,1.87-2s1.66-1.91,2.42-2.83,1.14-1.39,1.14-1.42l0,0a.08.08,0,0,1,0,0s0-.05.07-.06l0,0a.43.43,0,0,0,0-.05v0a.15.15,0,0,1,.09-.14h0l0,.06a0,0,0,0,1,0,0s0,0,0,0a5.57,5.57,0,0,0,.8-1.05,3.75,3.75,0,0,1,.44-.58l0,.07,0,.07.08-.06a.5.5,0,0,0,.12-.17,7.63,7.63,0,0,1,1-1.11,4.46,4.46,0,0,0,.34-.35,8.09,8.09,0,0,1,.87-.85,1,1,0,0,1,.57-.26.53.53,0,0,1,.36.21,7.51,7.51,0,0,1,.53.59,5.12,5.12,0,0,0,.43.52.49.49,0,0,0,.27.16c.07,0,.12,0,.17.14a.62.62,0,0,1,.07.31,2.42,2.42,0,0,1-.4.94c-.27.46-.72,1.19-1.37,2.21a1.86,1.86,0,0,0-.14.21A25.66,25.66,0,0,0,158.31,38a7.34,7.34,0,0,0-.7,2.76,2.59,2.59,0,0,0,.73,1.87,2.12,2.12,0,0,0,1.54.75,2,2,0,0,0,.64-.11c.2-.07.43-.17.71-.3a2.29,2.29,0,0,1,.81-.27c.08,0,.11,0,.11.06s-.16.15-.49.34a7.21,7.21,0,0,1-1.17.5,4.36,4.36,0,0,1-1.36.23A2.59,2.59,0,0,1,158.3,43.75Z"/><path class="cls-16" d="M161.55,53.05a2.79,2.79,0,0,1-.46-1.65,16.67,16.67,0,0,1,1.48-5.61q1.49-3.69,4.61-9.6c.08-.16.21-.39.38-.7a6.69,6.69,0,0,1,.67-1.17c.09-.09.13-.16.13-.2l0,0v0c0-.17.14-.35.41-.55,0,0,0,0,0,0s0,0,0,0-.07,0-.07,0a.38.38,0,0,1,.07-.17c.05-.06.09-.1.13-.1h0c.06,0,.15-.1.28-.31a1.53,1.53,0,0,0,.19-.36v0a2.19,2.19,0,0,0-.23.33c-.14.2-.21.31-.22.31h0a1.35,1.35,0,0,1,.19-.4c.13-.2.23-.31.32-.33a.71.71,0,0,0,.22-.25.65.65,0,0,0,.14-.27s0,0,0,0l0,0-.05,0a0,0,0,0,1,0,0,.63.63,0,0,1,.16-.28c.1-.13.18-.2.25-.2h.07v0a.19.19,0,0,1,0-.09,1.67,1.67,0,0,1,.49-.81,8.19,8.19,0,0,1,1.09-1,1.86,1.86,0,0,1,.85-.47l.11,0,.16,0h.05a.08.08,0,0,1,0,0,.1.1,0,0,0,0,0s0,.07.12.1.17.11.17.17.07.11.2.13.14.05.14.08,0,.06,0,.06v0h0c.05,0,.14.07.27.2s.34.3.44.3h0c.12,0,.17.05.17.17a1.51,1.51,0,0,1-.17.57c-.12.25-.28.55-.49.93a3.56,3.56,0,0,0-.34.69,0,0,0,0,0,0,0,1.66,1.66,0,0,0,.41-.31,13.81,13.81,0,0,1,1.86-1.32,9.58,9.58,0,0,1,1.78-.86,4.52,4.52,0,0,1,1.49-.3,2.46,2.46,0,0,1,1,.24l.14.06v0c0-.07-.11-.2-.34-.38s-.15-.12-.15-.14,0,0,0,0,.21.11.4.32a3.8,3.8,0,0,1,.55.91,7.65,7.65,0,0,1,.49,1.49,9.38,9.38,0,0,1,.2,2,3.8,3.8,0,0,1-.1,1,2.17,2.17,0,0,1-.18.55,3.3,3.3,0,0,1-.15.49,6.5,6.5,0,0,1-.38.88,2.67,2.67,0,0,1-.51.74,1.78,1.78,0,0,0-.08.18q-.15.3-.24.3c-.07,0-.1,0-.1.07s0,0,0,0v0h0a.49.49,0,0,1-.07.24c-.06.09-.11.13-.15.13h-.07c-.1,0-.14,0-.14.07v.1c0,.09,0,.14-.07.14l0,0h0s-.08,0-.12.11a.32.32,0,0,0-.07.19.19.19,0,0,0,0,.08l0,0h-.06a.49.49,0,0,0-.28.08,1.33,1.33,0,0,0-.23.24c-.08.13-.15.19-.19.19s-.11,0-.13.12-.06.13-.11.13a.23.23,0,0,0-.24.13.86.86,0,0,0-.11.32c0,.08,0,.13-.05.13s0,0,0,0-.06-.08-.08-.08-.06,0-.12.09-.08.1-.08.12l.08,0,0,0v0s0,.07-.14.15a.68.68,0,0,1-.21.13l-.23,0c-.06,0-.08,0-.08,0s0,.06.08.13a.09.09,0,0,1,0,0h0c-.06,0-.14,0-.26.17s-.17.14-.21.14,0,0-.08-.07l0,0s0,0,0,0a.41.41,0,0,1-.22.21,3.34,3.34,0,0,0-.44.33.65.65,0,0,1-.15.11s0,0,0,0,0,0,0,0l-.09.07c-.16.15-.28.23-.38.23a.4.4,0,0,0-.25.18s0,0,0,0,0,0-.07-.08,0-.07-.05-.07,0,0,0,.07-.05.14-.1.14h-.11l-.08,0s0,0,0,0a.26.26,0,0,0,0,.07v0l-.09-.06a.41.41,0,0,0-.12-.07v0h0s0,0,0,0,0,.1-.11.14a.33.33,0,0,1-.14.07h0l0,0s0,0,0,0a.1.1,0,0,0-.06-.1s0,0,0,0v0a.09.09,0,0,1,0,0,.24.24,0,0,1-.08.13c-.05,0-.09.08-.12.08l0,0,0,0a.13.13,0,0,0-.07,0,.35.35,0,0,1-.14.07l0,0h0s0,0,0,0a.15.15,0,0,1-.15.1l-.07,0h-.13c-.08,0-.11,0-.11,0v0h0s0,.06-.1.09h-.07s0,0,0,0-.07-.06-.16-.06a.52.52,0,0,0-.29.09.57.57,0,0,1-.29.08,9.68,9.68,0,0,1-1.53-.18,4.39,4.39,0,0,1-1.73-.68,1,1,0,0,0-.39-.19c-.09,0-.24.18-.47.55s-.24.37-.29.37,0,0,0,0v0l0,0s0,.09-.12.14-.05.06-.05.07h.09c0,.07-.07.16-.21.26s-.07.06-.07.07l0,0a.08.08,0,0,1,0,0s0,0-.07.07a.58.58,0,0,0-.18.3.86.86,0,0,1-.24.38l0,0h0l.06,0,.07,0v0l0,0c-.13.1-.19.18-.19.23a21.42,21.42,0,0,1-1.33,2.3.15.15,0,0,1-.09.14.28.28,0,0,0-.11.16,1.1,1.1,0,0,1-.12.31c-.06.1-.11.15-.16.15l0,0h0v0a.14.14,0,0,1,0,.06,1.2,1.2,0,0,1-.25.55c-.17.26-.3.39-.38.39a.14.14,0,0,1-.15-.08l0,0s-.06,0-.11.08a.44.44,0,0,0-.08.2l0,.07s0,0,0,0a6,6,0,0,0-.9,1.76,2.75,2.75,0,0,1-.22.54.3.3,0,0,0-.06.14,1.09,1.09,0,0,1,0,.19.61.61,0,0,1-.07.36l0,0a.07.07,0,0,0-.06,0s0,0-.06.07v0a.14.14,0,0,0,.09.13h0l-.06,0s-.06,0-.06.11a.23.23,0,0,0,0,.14s.05.07.08.07,0,0,0,0,.1.13.28.21a6.52,6.52,0,0,0,1.11.26l-.07,0-.4.15a1.3,1.3,0,0,1-.36.05A1.38,1.38,0,0,1,161.55,53.05ZM171.3,41.8a8,8,0,0,0,1.14-.45,4,4,0,0,0,.84-.45s.21-.17.59-.45a14,14,0,0,0,1.22-1c.09-.1.14-.15.17-.15h0a1.83,1.83,0,0,0,.35-.35,1.49,1.49,0,0,0,.33-.41,1.51,1.51,0,0,0-.35.26,18.26,18.26,0,0,1-2.82,1.94,5.5,5.5,0,0,1-2.18.86h0s.19-.12.57-.24a11.36,11.36,0,0,0,2.58-1.33,19.76,19.76,0,0,0,2.62-2.1,9.26,9.26,0,0,0,1.76-2.13,1.54,1.54,0,0,1,.38-.4l.09-.07h-.06l-.07,0a0,0,0,0,1,0,0,1.44,1.44,0,0,1,.21-.42c.14-.24.23-.35.26-.35a3,3,0,0,1-.14.28,1.17,1.17,0,0,0-.16.32h0c.08,0,.23-.19.46-.56a8.74,8.74,0,0,0,.63-1.3,3.71,3.71,0,0,0,.28-1.24,3,3,0,0,0-.07-.51.41.41,0,0,0,0-.1l-.2.66a1.94,1.94,0,0,0-.12-.8l0,0a.41.41,0,0,1,0-.07v0s0,0,0,0h0l-.07,0a.88.88,0,0,1-.28-.07l0,0h.09c.11,0,.17,0,.17-.05L179,31c-.07,0-.1,0-.1.06s0,0,0,.08a.15.15,0,0,1,0,.06s-.05,0-.15.05-.17,0-.2-.05,0-.07.09-.09.08,0,.08-.08,0-.09-.07-.09a.8.8,0,0,0-.35.2.65.65,0,0,1-.27.14h0s.05-.06.14-.11.13-.09.13-.1,0,0-.08,0a1,1,0,0,0-.38.09c-.14.05-.22.1-.22.14v0h0s0,0,0,0h-.19a.85.85,0,0,0-.33.07c-.13.05-.19.1-.19.15l0,0a0,0,0,0,1,0,0s0,0,0,0l0,0h-.08a.66.66,0,0,0-.51.21s-.05,0-.06,0h-.07s-.07,0-.08.08A.13.13,0,0,1,176,32l-.07,0h-.07c-.07,0-.13.05-.2.15s-.1.13-.14.13l0,0h0s0,0,0,0a.12.12,0,0,1-.13.1.12.12,0,0,0-.11.08.18.18,0,0,1-.15.09q-.09,0-.09,0l0,0a.09.09,0,0,1,.06.08c0,.06-.11.12-.31.16a19.25,19.25,0,0,0-1.89,1.78l-.71.69a5.8,5.8,0,0,0-.9,1.18,6.55,6.55,0,0,0-.76,1.23s-.16.3-.47.85a29,29,0,0,0-1.68,3.23l.61.13a4,4,0,0,0,.74.1A7.68,7.68,0,0,0,171.3,41.8Z"/><path class="cls-16" d="M190.77,43.88a1.41,1.41,0,0,1-.45-.07l-.1,0,0,0a1,1,0,0,1-.24-.13,8.75,8.75,0,0,0-.9-.53,3.24,3.24,0,0,1-1.5-1.42,5.71,5.71,0,0,1-.44-2.51,12.23,12.23,0,0,1,.24-2c.16-.78.28-1.18.36-1.18s.06,0,.06.07-.11.48-.23.88a4.63,4.63,0,0,0-.25,1.16s0,0,0,0,.09-.18.19-.54a13.59,13.59,0,0,1,.85-2.41c.33-.71,1-2,2-3.74.67-1.17,1.14-1.94,1.39-2.32s.47-.56.66-.56.61.46,1.2,1.36l.11.16a4.56,4.56,0,0,1,.27.91,1.63,1.63,0,0,0-.07.23,9.85,9.85,0,0,1-.45,1.07c-.16.32-.49.9-1,1.75s-.86,1.51-.86,1.56v0a3.54,3.54,0,0,0,.6-.88c.34-.59.72-1.27,1.13-2s.73-1.47,1-2.05a.15.15,0,0,0,0,.06,1,1,0,0,1,.09.35c0,.51-.73,1.94-2.18,4.32-.12.2-.19.31-.19.32a3.79,3.79,0,0,1-.35.59,17.43,17.43,0,0,0-1.5,3,7.33,7.33,0,0,0-.55,2.44,2.55,2.55,0,0,0,.07.59,1.39,1.39,0,0,0,0,.17h0a3.19,3.19,0,0,0,1-.1l.19-.08a8,8,0,0,0,1.91-1,16.21,16.21,0,0,0,4.91-5.83c.12-.24.21-.4.26-.49s.1-.13.15-.13.13.1.25.3l.06.08a10.7,10.7,0,0,1-.72,1.48.14.14,0,0,0,0,.09,2.63,2.63,0,0,1-.47,1.09,1.51,1.51,0,0,0-.12.19v0a2.83,2.83,0,0,1-.43.78,1.94,1.94,0,0,0-.23.37,4.27,4.27,0,0,1-.83,1.11,24.45,24.45,0,0,1-1.71,1.8c-.59.56-1,.84-1.13.84l-.15.09A3.58,3.58,0,0,1,190.77,43.88Zm5-16s-.08,0-.12-.12-.08-.11-.12-.11h-.06c-.06,0-.15-.07-.29-.22s-.11-.1-.13-.1h0a3.32,3.32,0,0,1-.82-.39l-.06,0a1.23,1.23,0,0,1,0-.17.75.75,0,0,1,0-.2,3.8,3.8,0,0,1,.28-1.06,5.61,5.61,0,0,1,.49-1.13.51.51,0,0,0,.12-.27s0-.06,0-.06l-.06,0,0,0s0,0,0,0v0a.14.14,0,0,1,.11-.06h0a.05.05,0,0,0,0,0c.05,0,.11-.05.17-.14a.7.7,0,0,1,.19-.22.56.56,0,0,1,.32-.08.62.62,0,0,1,.46.18,2.5,2.5,0,0,1,.33.45c.06.12.11.17.14.17s.07.05.08.13,0,.11.07.11.15.2.31.61a.08.08,0,0,1,0,0l-.21.67a4.28,4.28,0,0,0-.14.48s.13-.22.28-.66.29-.74.34-.74.09.1.09.29a2.73,2.73,0,0,1-.26,1,6.35,6.35,0,0,1-.59,1.07c-.23.31-.41.46-.55.46h0l-.06,0a.21.21,0,0,0-.14.07A.15.15,0,0,1,195.74,27.87Z"/><path class="cls-22" d="M204.77,47.42l-.06,0a4.27,4.27,0,0,0-.44-.3,5,5,0,0,0-.8-.34c-1-.35-1.57-.88-1.67-1.59a.57.57,0,0,0-.07-.2,5.4,5.4,0,0,1-.31-1.87,3.83,3.83,0,0,1,.05-.63c0-.17.06-.26.09-.26s0,.18,0,.52v.38c0,.2,0,.34,0,.43,0,.45,0,.68.07.68s.07-.25.11-.77a3.11,3.11,0,0,1,.14-.9s0-.05,0-.11v-.1a.08.08,0,0,1,0,0,.1.1,0,0,1,0-.09s.05,0,.05-.11V42a.18.18,0,0,1,0-.06s0-.07,0-.08a.09.09,0,0,0,.06-.1v-.07s0-.06,0-.07a.09.09,0,0,1,.08-.09s0,0,0,0a.05.05,0,0,0,0,0,.15.15,0,0,1,0-.07.24.24,0,0,1,0-.13,1.33,1.33,0,0,0,.14-.45.65.65,0,0,1,.13-.35.21.21,0,0,0,.07-.15,4.75,4.75,0,0,1,.27-.88,2.92,2.92,0,0,1,.35-.77.17.17,0,0,0,0-.14,10.83,10.83,0,0,1,.88-2.09c.59-1.22,1.27-2.58,2.06-4.07s1.46-2.69,2-3.6A108.07,108.07,0,0,1,219,13.57a8.19,8.19,0,0,0,.73-.87s0,0,.06,0a.6.6,0,0,0,.24-.11,1.19,1.19,0,0,1,.56-.22,1,1,0,0,1,.75.5,7,7,0,0,1,.78,1.56c.09.25.18.37.27.37h.08q.3,0,.3.6a79.62,79.62,0,0,1-2.12,9c-.18.66-.29,1.05-.31,1.17l-1.06,4.94a2,2,0,0,0-.08.46,1.52,1.52,0,0,1-.13.53l0,.24c-.13,1-.23,1.78-.31,2.25a1.82,1.82,0,0,0-.08.38q0,.09.06.09l.09,0s.06,0,.06-.06v0h0s.2-.35.6-1,.61-1,.63-1l.05,0a0,0,0,0,0,0,0h0s.38-.61,1.13-1.8h0a8.88,8.88,0,0,1,.69-1.31q.7-1.22,2-3.42c.64-1.09,1.12-1.89,1.42-2.41a8.44,8.44,0,0,0,.45-.82v0a0,0,0,0,1,0,0h.06c.06,0,.19-.17.39-.5a1.9,1.9,0,0,0,.31-.65v0a0,0,0,0,1,0,0s0,0,0,0l0,0h0c.05,0,.11-.06.2-.18a.6.6,0,0,0,.12-.28v0c0-.05.05-.1.16-.17l.07-.08H227l.17-.18a2.22,2.22,0,0,0,.49-.66s0,0,0,0l-.06,0,0,0h0a.47.47,0,0,1,.13-.24c.08-.1.14-.16.18-.16v0l0,.07,0,0v0s.09-.07.22-.22a.79.79,0,0,0,.18-.27,0,0,0,0,0,0,0l-.07,0-.06,0s0,0,0,0,0,0,.1-.06a.35.35,0,0,0,.22-.15v0s0,0,0,0a.1.1,0,0,0-.06,0l-.05,0s0,0,0,0,0,0,0-.07a.13.13,0,0,1,.07,0h.06s.09,0,.16-.14a.41.41,0,0,0,.09-.18v0a0,0,0,0,0,0,0h-.06a.42.42,0,0,1,.13-.23c.08-.1.14-.15.17-.15h0l0,.07,0,0s.08-.06.19-.19a.62.62,0,0,0,.15-.3v-.07a0,0,0,0,1,0,0l0,0h0c.05,0,.09,0,.14-.09a.23.23,0,0,0,.07-.13,1.24,1.24,0,0,1,.16-.21c.15-.17.24-.29.24-.35h0l0,0a.28.28,0,0,1,.08-.15c0-.07.09-.1.1-.1s0,0,0,.07l0,0s.06,0,.13-.11.11-.12.11-.16,0,0,0,0,0,0-.08,0l0,0s0,0,0,0v0l.11,0a.23.23,0,0,0,.16-.17.36.36,0,0,1,.08-.2c.05-.06.09-.1.11-.1l0,.06,0,.06h0l.08-.1a.29.29,0,0,0,.07-.17s0,0,0,0l0,0h.09s.12-.06.22-.18.16-.2.16-.23h0s-.07,0-.17.12a.19.19,0,0,1-.07.06,4.14,4.14,0,0,1,.35-.46h0l0,0a.25.25,0,0,0,0,.09h0a2.19,2.19,0,0,0,.44-.57c.3-.45.6-.87.92-1.27a10.2,10.2,0,0,1,1.17-1.27,1,1,0,0,1,.65-.34q.33,0,.78.54c.29.35.62.8,1,1.33a2,2,0,0,0,.31.41s0,.07,0,.2v.07a1,1,0,0,0,.06.29.8.8,0,0,1,0,.16.33.33,0,0,1-.09.18s0,0,0,0h.05s.06.11.06.34c0,0,0,.15-.05.41a2.89,2.89,0,0,1-.08.47.44.44,0,0,1,0,.09l0,.08a1.39,1.39,0,0,0,0,.17c0,.12,0,.18-.07.18h0s0,.07-.06.21a1.1,1.1,0,0,1-.18.59.27.27,0,0,0-.08.11h0l.09,0s0,0,0,.06a.26.26,0,0,1,0,.1.35.35,0,0,0-.1.19,2.2,2.2,0,0,1-.14.45.15.15,0,0,0,0,.06h0l.1,0a.82.82,0,0,1-.14.19.86.86,0,0,0-.13.16h0l.19,0,.07,0,0,0a.46.46,0,0,0-.15.27s0,0,0,0a0,0,0,0,1,0,0c0,.05,0,.1-.1.17a.26.26,0,0,0-.08.12.11.11,0,0,0,0,0l0,0a0,0,0,0,1,0,0q-.09.06-.09.27a.87.87,0,0,1-.23.45.3.3,0,0,0-.06.09s0,0,0,0l.09,0h0l-.12.14a.72.72,0,0,0-.16.21s0,0,0,0h.07a.75.75,0,0,1,.18-.07l-.06.07a.51.51,0,0,0-.14.26.29.29,0,0,0,0,.09.08.08,0,0,1,0,0s0,0,0,0h0l0,0s-.05.05-.05.14-.05.17-.09.17,0,0,0,0a.11.11,0,0,0,0,.05.08.08,0,0,1,0,0,.61.61,0,0,1-.09.22c-.07.11-.11.16-.14.16h0s0,0,0,.1v.13a.56.56,0,0,1-.14.31.27.27,0,0,0-.11.19.06.06,0,0,0,0,0,.11.11,0,0,1,0,.05s0,.06-.08.07l-.06,0,0,0a.3.3,0,0,1,.1.23c0,.07,0,.11-.06.11h0l0,0s-.06.08-.07.24a1,1,0,0,1-.22.61.31.31,0,0,0-.13.21.22.22,0,0,0,0,.1.13.13,0,0,1,0,.08c0,.07,0,.15-.16.27s-.13.14-.13.17,0,0,.06.05a.21.21,0,0,1,.11.16s0,0,0,0,0,0-.08-.08,0-.06,0-.06,0,0,0,.09a.44.44,0,0,1-.11.29c-.06,0-.11.15-.14.37s-.06.24-.1.24,0,0,0,0h0s0,0,0,0,0,.1-.12.18-.12.13-.12.16,0,0,.07.06h0c-.06,0-.09.1-.11.24s0,.16-.06.16l0,0,0,0h0s0,0,0,0a.2.2,0,0,1,0,.08.61.61,0,0,1-.13.26.15.15,0,0,0-.06.07h0l.08,0,0,0,0,.05a.57.57,0,0,0-.1.26.35.35,0,0,0,0,.12v0s0,0,0,0l0,0a.16.16,0,0,0-.1-.07.05.05,0,0,0,0,0s0,0,0,.05,0,.05,0,.07a.17.17,0,0,1,.05.12.19.19,0,0,1,0,.11.1.1,0,0,1-.08.05h-.06s-.06,0-.08.06a.59.59,0,0,0,0,.17.55.55,0,0,1-.15.42.16.16,0,0,0-.07.15.67.67,0,0,0,0,.17.55.55,0,0,0,0,.09,0,0,0,0,1,0,0l-.06-.05c0-.05-.06-.07-.07-.07a.94.94,0,0,0-.06.28.56.56,0,0,0,.11.27h0l-.07,0c-.08-.06-.12-.09-.14-.09s0,0-.06.07,0,.06,0,.06a.31.31,0,0,1-.12-.06.3.3,0,0,0-.11-.07s-.06.08-.06.23v.14a.1.1,0,0,1-.07.1l0,0a.17.17,0,0,0,0,.05.08.08,0,0,1,0,0s0,.06-.1.1-.13.1-.13.17a.26.26,0,0,0,.09.16.21.21,0,0,0,.13.09s0,0,0-.13,0-.14-.06-.14l-.06,0h0s0,0,0,0l0-.06a.18.18,0,0,1,.14-.07c.08,0,.12-.05.12-.09a.11.11,0,0,0,0-.05.11.11,0,0,1,0-.05.13.13,0,0,1,.07-.12.12.12,0,0,0,0-.08s0,0,0,0v0a.05.05,0,0,1,.06-.06s.07,0,.07.13a1.2,1.2,0,0,1-.13.42.55.55,0,0,0-.08.23s0,0,0,0h0s0,.09-.11.16a.33.33,0,0,1-.18.1s0,0,0-.06a.2.2,0,0,1,0-.07.18.18,0,0,0,0-.06s0-.05-.08-.05-.13,0-.13,0l0,0a.13.13,0,0,1,.07.11v.05s0,.06.08.09a.23.23,0,0,1,.13.2.09.09,0,0,1-.06.08.06.06,0,0,0-.05.06.13.13,0,0,0,0,.05.18.18,0,0,1,0,.06c0,.05-.06.11-.18.17s-.1,0-.1.07,0,0,0,0a.15.15,0,0,1,.1.15s0,0,0,0a.37.37,0,0,1-.16-.07.31.31,0,0,0-.12-.07s-.05,0-.05,0,.06.16.17.3a.21.21,0,0,1,.06.08s0,0,0,0h-.17c-.11,0-.17,0-.17.06s0,0,0,0a.08.08,0,0,1,0,0,.06.06,0,0,1,0,.06h.07a.15.15,0,0,1,.13.06h0s0,.06-.1.07-.08,0-.08.06a.45.45,0,0,0,0,.08l0,0h0l0,0a.22.22,0,0,0-.15-.08.17.17,0,0,0-.18.18.13.13,0,0,0,0,.06v0s0,.06,0,.07-.07,0-.07.13a.28.28,0,0,0,.07.21.24.24,0,0,0,.13.07s0,0-.07-.07l-.08-.06s0,0,.06,0a.56.56,0,0,1,.17,0c.06,0,.1,0,.1,0s-.11.12-.31.14a.2.2,0,0,1-.11,0l0,0s0,0,0,0,0,0,0,.07a.2.2,0,0,1,0,.07s0,.09-.11.17-.11.11-.11.14,0,0,0,0,0,0,.06-.07l.07-.06s0,0,0,.07,0,.14.06.14h0c.06,0,.14.07.25.21l0,0,0,0c-.11-.1-.18-.14-.22-.14s0,0,0,.07,0,0,0,0l-.07,0a.29.29,0,0,0-.14-.07s0,0,0,0,0,.09.11.16a.22.22,0,0,1,.07.1s0,0,0,.05-.07,0-.07.1v0a.08.08,0,0,1,0,0s0,0-.07-.05-.12-.1-.14-.1-.05,0-.05.13v.11a.55.55,0,0,1-.07.24l0,0s.05,0,.15.05h.12l-.34.14.42.17-.55.11.23.18a.25.25,0,0,1,.07.19c0,.06,0,.1-.14.11s-.16.05-.16.11,0,.16.09.16h0s0,0,0,.1,0,.08,0,.08h-.05s0,0,0,0-.05.09-.08.09-.06,0-.06,0,0,0,0-.07a.23.23,0,0,0,.07-.13.05.05,0,0,0,0,0,.21.21,0,0,1-.05-.15v0l0-.07,0,0s0,0-.06.09a.65.65,0,0,0,0,.24,1,1,0,0,0,0,.25c0,.08.05.12.09.13a.12.12,0,0,1,.08.11,0,0,0,0,1,0,0,1,1,0,0,1-.24-.13l-.11-.07a.72.72,0,0,1,0,.13c0,.14,0,.23,0,.29s0,.07-.07.07,0,0,0,.07a.33.33,0,0,0,0,.1v0a0,0,0,0,1,0,0l-.07,0h-.06l0,.07a.16.16,0,0,0,.11,0,.17.17,0,0,0,.18-.13s0,0,0,0,0,0,.07,0a.1.1,0,0,1,0,.08c0,.05,0,.07-.07.07h0s-.06,0-.06.09v.07a.11.11,0,0,1-.07.11.14.14,0,0,0-.08.13q0,.09-.06.09s-.06,0-.07-.09l0,0v0s0-.06-.05-.06-.05.06-.05.17v.12c0,.13,0,.2-.07.23l0,0s0,0,.08,0a.37.37,0,0,0,.22-.12c.06-.07.11-.1.14-.1h0a.17.17,0,0,1,0,.07.23.23,0,0,0-.07.13.06.06,0,0,0,0,.06v0h0l-.09,0a.18.18,0,0,0-.11,0s0,.05-.06.05a.05.05,0,0,1,0,0s-.06.06-.06.17v.08c0,.17,0,.28-.07.31a.21.21,0,0,0,0,.12c0,.05,0,.08-.05.08l-.08,0s0,0,0,0h0l0,0a.67.67,0,0,1,.1.35c0,.07,0,.11-.05.11h-.09l0,0a.24.24,0,0,1,0,.1s0,.06,0,.06h0c-.06,0-.12.22-.2.67a2,2,0,0,1-.1.46.33.33,0,0,0,0,.15.37.37,0,0,0,0,.09.2.2,0,0,1,0,.07s0,0-.06.06a.07.07,0,0,0,0,.07.18.18,0,0,0,0,.06.24.24,0,0,1,0,.08.22.22,0,0,1-.05.14,2.84,2.84,0,0,0-.14.65,4.41,4.41,0,0,1-.35,1.4c0,.13-.07.2-.07.22l0,0s0,0,0,.07a4.68,4.68,0,0,1-.11.59A7.81,7.81,0,0,0,227,45v.09s0,0,0,0-.12.24-.12.57a1,1,0,0,0,.08.49.35.35,0,0,1,0,.13,2.09,2.09,0,0,1-.11.56,1,1,0,0,1-.2.43.58.58,0,0,1-.3.07.52.52,0,0,1-.43-.19l0,0a0,0,0,0,0,0,0h0s-.07,0-.12-.15a.79.79,0,0,1-.06-.29v-.09s0-.08,0-.09-.08-.11-.08-.24V46a1.36,1.36,0,0,0,0-.29,1.06,1.06,0,0,1-.05-.31v-.11c0-.19,0-.46,0-.81s0-.68,0-.92a30,30,0,0,1,.29-3.77c0-.25,0-.42.05-.52q.55-4.74,4.53-16.58c0-.14.11-.34.2-.6.63-1.89,1-3.09,1.21-3.62a5.43,5.43,0,0,0,.26-.91s0,0,0,0-.3.39-.58,1.16-.76,2.15-1.42,4.15a.21.21,0,0,0-.07.14,1.44,1.44,0,0,1-.28.85.3.3,0,0,0-.06.09.25.25,0,0,0,0,.07.26.26,0,0,1,0,.07.1.1,0,0,1-.11.11.17.17,0,0,1-.12-.06.15.15,0,0,1-.06-.07,0,0,0,0,1,0,0h.06s.07,0,.11-.12a.86.86,0,0,0,.05-.27.35.35,0,0,0-.05-.18v0h0l.06,0,.07,0h0a.08.08,0,0,0,0,0,.23.23,0,0,1,0-.09s0-.09.14-.14.06,0,.06-.05,0,0-.07-.07-.09-.06-.09-.07,0,0,.06-.06.1-.11.1-.15v0a.22.22,0,0,1,0-.1q0-.21.09-.21h0s0,0,0-.05,0,0,0-.09a.46.46,0,0,1,0-.1s0,0,0,0l.05,0s0,0,0,0a.17.17,0,0,0,0-.07.51.51,0,0,1,0-.09.1.1,0,0,1,.09-.1.07.07,0,0,0,0-.07h0v-.08a.11.11,0,0,1,0-.1l.32-1,.73-2.17q-.31.27-.33.45s0,0,0,0h0s-.08,0-.11.09a.32.32,0,0,0-.06.18v0q0,.07-.24.09h-.07l.08,0,.17,0c-.48.45-.71.73-.71.82h0v0a4.5,4.5,0,0,1-.35.46,2.46,2.46,0,0,0-.2.26.84.84,0,0,1-.08.21.89.89,0,0,0-.13.35v0l0,0s0,0,0,0H229l-.1,0s-.07,0-.07.1v.1a.42.42,0,0,1-.08.29.49.49,0,0,1-.22.14c-.06,0-.11,0-.12.08a.17.17,0,0,0,0,.05v0l0,0,.07,0s0,0,0,0a1.09,1.09,0,0,1-.18.32,1.72,1.72,0,0,1-.2.26h0v0a.45.45,0,0,0,0-.13v0a.35.35,0,0,0-.1.16,10.28,10.28,0,0,1-1,1.73c-.57.83-.87,1.3-.91,1.4a7.87,7.87,0,0,0-.44.7,5.29,5.29,0,0,1-.29.48c-.07.09-.13.14-.17.14s0,0,0,.05v0a2.75,2.75,0,0,1-.47.82l-.27.43a.9.9,0,0,1-.21.34,1.37,1.37,0,0,0-.19.33,1,1,0,0,1-.24.33.17.17,0,0,0-.06.14.29.29,0,0,1-.14.23c-.06,0-.08.05-.08.07v0h0c0,.05-.06.14-.17.28a.74.74,0,0,0-.2.34c0,.05,0,.11-.12.2a.41.41,0,0,0-.13.24.12.12,0,0,1,0,.08,1.51,1.51,0,0,0-.24.35.69.69,0,0,1-.25.35.1.1,0,0,0,0,.09,17.67,17.67,0,0,1-1.06,1.8c-.7,1.13-1.15,1.81-1.33,2a5.56,5.56,0,0,0-.4.47,1.53,1.53,0,0,1-.24.29,4.79,4.79,0,0,1-.55.37l0,0a5.43,5.43,0,0,0-1.31-.55,1.68,1.68,0,0,1-.91-.56,2.77,2.77,0,0,1-.38-1.28c-.07-.59-.1-1.54-.11-2.83s0-1.93.05-2.31c.28-2.31.67-4.66,1.19-7,.07-.37.11-.57.11-.61h0s-.13.18-.25.54a5.52,5.52,0,0,0-.25,1c0,.1-.18,1.11-.52,3.06-.09.5-.13.78-.14.84-.19,1.28-.32,2.72-.4,4.32a4.29,4.29,0,0,1,0,.52,3.47,3.47,0,0,1,0-.48,27.08,27.08,0,0,1,.13-2.81c.09-.87.22-1.82.39-2.86.09-.62.15-1,.18-1.31s.13-.69.28-1.29a6.41,6.41,0,0,0,.14-.63s0,0,0,0a6.07,6.07,0,0,0-.72,1c-.44.69-.94,1.5-1.5,2.44l-1.39,2.35q-3.69,6.47-5.75,11.12a23.69,23.69,0,0,0-2.22,6.8q0,.69-.18.69t-.27-.18l-.06-.07Zm.23-1.18h0a1.8,1.8,0,0,1,.2-.85.18.18,0,0,0,0-.06s0-.06-.08-.08,0,0,0-.06,0,0,0,0,.09,0,.14-.14a.43.43,0,0,0,.09-.21,0,0,0,0,0,0,0l-.05,0s0,0,0,0a.08.08,0,0,1,.06-.09.09.09,0,0,0,.05-.08.34.34,0,0,0,0-.09.31.31,0,0,1,0-.08.1.1,0,0,1,.06-.09s.06-.06.06-.14v-.08s0-.06,0-.07,0-.11.06-.13.08-.1.08-.21,0-.15.07-.15h0a0,0,0,0,0,0,0,.2.2,0,0,1,0,0,.25.25,0,0,1,0-.07s0-.06.11-.07,0,0,0,0,0,0-.07-.07l-.07,0,0,0c.05,0,.1,0,.16-.11a.34.34,0,0,0,.08-.17l0,0-.12,0h-.07l0,0a.52.52,0,0,0,.17-.34c0-.09,0-.14.08-.14h0s.07,0,.07-.13v-.1a.24.24,0,0,1,.1-.21.15.15,0,0,0,.08-.12.17.17,0,0,0,0-.07l0-.07a.16.16,0,0,1,.1-.14.14.14,0,0,0,.08-.12.11.11,0,0,0,0-.05.18.18,0,0,1,0-.06s0-.06.07-.07a.07.07,0,0,0,.05-.07.84.84,0,0,0,0-.1.39.39,0,0,1,0-.06h0l0,0s.06,0,.11-.11a.37.37,0,0,0,.07-.19.11.11,0,0,0,0-.09.09.09,0,0,1,0-.06s0-.08.11-.14.16-.19.16-.27v0l0,0a.3.3,0,0,1,.09-.19.34.34,0,0,0,.08-.18,0,0,0,0,1,0,0v0s0,0,0,0h0l.06,0s.08,0,.11-.09,0,0-.09-.05-.05,0-.05,0l0,0a.44.44,0,0,0,.12-.19.25.25,0,0,1,.1-.16s0,0,0,0a0,0,0,0,0,0,0,.13.13,0,0,1,0-.06,1,1,0,0,1,.12-.36c.09-.17.15-.26.2-.26s0,0,0-.05a.14.14,0,0,0,0-.06v0a.68.68,0,0,1,.17-.31.36.36,0,0,0,.09-.14v0h0a.8.8,0,0,1,.4-.6l.08-.09s0-.05,0-.05h-.06a1.35,1.35,0,0,1,.15-.4c.1-.2.17-.31.22-.31h.05v0s0,0,0,0a5.07,5.07,0,0,1,.51-1.18c.33-.67.53-1,.6-1h0s0,0,0,0a0,0,0,0,0,0,0v0A26.14,26.14,0,0,1,212,29.93q2.13-3.72,3.9-6.45a19.07,19.07,0,0,0,1.43-2.38h0c-2.22,3.37-3.42,5.23-3.6,5.61a.92.92,0,0,1-.25.35.37.37,0,0,0-.14.21.8.8,0,0,1-.19.33,2.25,2.25,0,0,0-.24.36,1.25,1.25,0,0,1-.22.37.66.66,0,0,0-.17.29.48.48,0,0,1-.18.31.19.19,0,0,0-.1.16.14.14,0,0,1-.08.12s-.06,0-.06,0v.07c0,.05,0,.1-.11.15s-.11.09-.11.12c0,.27-.12.41-.25.41l-.07,0h-.08l0,0a.29.29,0,0,1,.06.15.62.62,0,0,1-.06.26c0,.08-.08.12-.13.12h0a.17.17,0,0,0-.13.05l0,0h.07s.07,0,.07,0,0,.08-.11.12-.14.11-.14.18,0,.08-.07.08H211s0,0,0,0l0,0a.13.13,0,0,1,0,.06s0,.05-.11.05,0,0,0,0h0c.06,0,.1.06.1.1a.31.31,0,0,1-.05.11.68.68,0,0,1,0,.13s0,.06-.07.06h0a.09.09,0,0,0-.09.1q0,.09-.09.09l-.18-.05,0,0,.07.06c.11.09.17.16.17.21a.17.17,0,0,1-.1.16V32q0-.12,0-.12l0,.06c-.05.09-.09.16-.14.18a.09.09,0,0,0,0,0l.1,0c.07,0,.1,0,.1,0l0,.05a.28.28,0,0,0-.06.13s0,.05,0,.05v0s0,0-.07,0l-.21,0c-.06,0-.1,0-.1,0s0,0,.06.09.06.09.06.11,0,.06-.12.09l-.07,0s0,0,.06.06,0,0,0,0,0,0-.11,0-.16,0-.16.05a.29.29,0,0,0,0,.09.4.4,0,0,1,.06.13s0,.07-.11.07h-.19l0,0v0s0,.1-.14.18-.11.11-.11.14,0,.06.09.07,0,0,0-.08,0-.13.08-.13.12.06.13.2a.43.43,0,0,1,0,.14s-.05.07-.06.07,0,0,0,0,0-.09-.06-.09a.73.73,0,0,0-.26.13c-.13.09-.19.15-.19.18a0,0,0,0,0,0,0,.12.12,0,0,0,.08,0,.33.33,0,0,1,.14-.07c.08,0,.12,0,.12.14a1.64,1.64,0,0,1-.27.56,1.52,1.52,0,0,0-.18.35.41.41,0,0,1-.13.24.29.29,0,0,0-.08.14v.05a.35.35,0,0,1-.12.19.31.31,0,0,1-.2.11h0s.05-.08.17-.15l.08-.07a1.16,1.16,0,0,0-.34.05.18.18,0,0,0-.1.17s0,.1.12.14a.22.22,0,0,1,.12.2.1.1,0,0,1-.07.1.14.14,0,0,0-.09.15.37.37,0,0,1-.09.23.26.26,0,0,1-.18.11s0,0,0-.07a.28.28,0,0,1,0-.09v0a.29.29,0,0,0,0-.14.09.09,0,0,0-.08,0h0v0a.09.09,0,0,1,0,0s-.06.09-.18.14l-.09.06.06,0c.11,0,.17.05.17.11s0,0-.1.07-.28.18-.28.32v0a.32.32,0,0,1-.06.18c0,.06-.07.09-.11.09l0,0h0a.26.26,0,0,0-.14.09c-.05.06-.08.1-.08.12h0a.53.53,0,0,1,.27-.1c.08,0,.12,0,.12.08v0s0,0,.05,0h.14a0,0,0,0,1,0,0s0,.08-.14.11-.14.09-.14.14a.44.44,0,0,0,0,.09.89.89,0,0,1,0,.11,1.71,1.71,0,0,1-.21.44,2.31,2.31,0,0,0-.33.67s-.06.16-.15.38a7.92,7.92,0,0,0-.41,1.08v0s0,0,0,0h-.07s0,.07,0,.22,0,.21-.06.21h0s0,0,0,.07v.08c0,.18,0,.27-.07.27h0c-.1.3-.22.63-.36,1a2.5,2.5,0,0,1-.24.53s-.06,0-.06.11v.08a.79.79,0,0,1-.22.64l0,0h0a.41.41,0,0,1,0,.07,3.59,3.59,0,0,1-.1.54c0,.15-.06.25-.07.29a9,9,0,0,0-.25,1.73c0,.16,0,.24.07.24S205,46.7,205,46.24Z"/><path class="cls-22" d="M249.22,43.53a4.06,4.06,0,0,1-1.51-1.07,3.51,3.51,0,0,1-.49-.67,1.45,1.45,0,0,1-.23-.57v0a.2.2,0,0,0,0-.07.54.54,0,0,0-.07-.27,3,3,0,0,1-.14-.51,7.89,7.89,0,0,1,0-1,13.87,13.87,0,0,1,.21-2.52c.14-.75.31-1.5.51-2.24a4.07,4.07,0,0,0,.15-.64s0,0,0,0-.14.18-.25.54-.17.45-.21.45,0,.07-.06.22a.93.93,0,0,1-.11.47c-.06,0-.09.07-.09.11s-.09.7-.28,1.74c0,0,0,.23,0,.56s0,.81-.05,1.09,0,.4-.07.4,0-.17,0-.5a16.64,16.64,0,0,1,.4-3.64,2.67,2.67,0,0,0,.06-.31,2.79,2.79,0,0,0-.38.41l-.29.33h0a.45.45,0,0,0,.09-.17s0-.06-.05-.06-.09.05-.15.14a.42.42,0,0,0-.09.23s0,0,0,0h0l.08,0s-.08.12-.23.23l0-.06a.26.26,0,0,0,0-.07,0,0,0,0,0,0,0q-.09,0-.24.18a6.19,6.19,0,0,0-.39.53,5,5,0,0,1-.35.47,8.94,8.94,0,0,0-.94,1.07l0,0c-.05,0-.17.09-.35.25s-.27.26-.27.29l.07,0,.07,0a.76.76,0,0,1-.17.2c-.11.12-.18.18-.2.18s0,0,0,0a.28.28,0,0,1,0-.07v0A.39.39,0,0,0,243,39a.26.26,0,0,0-.11.17v0c0,.06,0,.08-.1.06s-.05,0-.1.12-.13.21-.16.21h0l0,0,0-.09a0,0,0,0,0,0,0,2.11,2.11,0,0,0-.56.43,8.78,8.78,0,0,1-1.57,1.22c-.11.06-.16.11-.16.15l0,0a0,0,0,0,1,0,0s0,.08-.13.13a.44.44,0,0,1-.24.07l-.07,0h-.05s0,0,0,0l0,0a.08.08,0,0,1,0,0q0,.09-.24.15a2.4,2.4,0,0,1-.56.06,1.58,1.58,0,0,1-.69-.12A7.21,7.21,0,0,1,237,40.7a2.58,2.58,0,0,1-.7-1,3.48,3.48,0,0,1-.21-1.27,6.7,6.7,0,0,1,.71-2.7,14.19,14.19,0,0,1,1.92-3,12.54,12.54,0,0,1,2.56-2.41c.47-.34.7-.54.7-.59v0l.05,0h.09a.68.68,0,0,0,.33-.2l.09-.07s0,0,0,0h0a15,15,0,0,1,2.47-1l.71,0a3.53,3.53,0,0,1,1.58.45,3.07,3.07,0,0,1,1.16,1.06q.17.27.24.27c.06,0,.16-.11.28-.33a9,9,0,0,1,1.33-1.67c.57-.59,1-.89,1.13-.89s.08,0,.08.1,0,.08-.14.09-.35.21-.78.65a15.6,15.6,0,0,0-1.2,1.38,2.34,2.34,0,0,0-.55,1.07q0,.12.06.12a3.69,3.69,0,0,0,.6-.65c.56-.66,1-1.2,1.49-1.63a1.83,1.83,0,0,1,1.14-.63.87.87,0,0,1,.41.11,2.71,2.71,0,0,1,.41.32c.11.1.18.16.21.16s.07,0,.07.05v.1c0,.08,0,.14.07.15h0c.06,0,.12.06.17.17s.07.13.1.13,0,0,0,0a.06.06,0,0,0,0,0v0s0-.05,0-.05.09,0,.09.08a.15.15,0,0,1-.07.11.24.24,0,0,0-.09.16c0,.06,0,.1.07.1l.06,0s.08.05.1.14,0,.13-.07.13h0a0,0,0,0,0,0,0c0,.05,0,.07.13.07s.15,0,.15-.1a.46.46,0,0,0,0-.1s0-.07,0-.08,0,0,0,0a.81.81,0,0,1,.1.17.56.56,0,0,1,.1.21H254s-.08,0-.15.15-.13.17-.18.17h0a4,4,0,0,0-.25.43v.06h-.19c-.05,0-.07,0-.07,0a.2.2,0,0,0,0,.07l0,0c0,.06-.06.12-.16.2s-.15.13-.15.18-.06.12-.16.17a.23.23,0,0,0-.17.13s0,0,0,0a.13.13,0,0,1-.1,0s0,0,0,0l0,0a.66.66,0,0,1,.09.26s0,0,0,0-.07,0-.07-.08a.2.2,0,0,1,0-.07v0h0a.18.18,0,0,0-.11.15.08.08,0,0,0,0,0v0s-.06,0-.18,0-.14,0-.14,0v0s0,0,0,0,0,0-.05,0-.06,0-.06,0,0,.1.11.1a.09.09,0,0,0,.07,0l0,0a.8.8,0,0,0-.22.38.06.06,0,0,0,0,0v0s0,0,0,0h0l-.06,0a.1.1,0,0,0-.1.06c0,.05,0,.07-.1.07a.19.19,0,0,0-.15.11.37.37,0,0,0-.07.19h.07l-.07.09a.66.66,0,0,0-.18.29l0,.05s0,0,0,0a.13.13,0,0,0-.11.13c0,.05,0,.08-.11.08h-.1s-.07,0-.07,0a.07.07,0,0,0,0,.05.09.09,0,0,0,.1.09l.06,0-.07.09c-.24.24-.36.41-.36.49a.52.52,0,0,1-.07.27c0,.08-.09.12-.14.12s-.05,0-.05,0a.08.08,0,0,1,0,0v0s0,0,0,0a.17.17,0,0,0-.12.06.2.2,0,0,0-.07.11,0,0,0,0,0,.05,0l.05,0h0s.07,0,.07,0,0,.06-.09.11a.38.38,0,0,0-.09.11s0,0,0,0,.09,0,.09.08,0,.06,0,.06h-.06l0,0a0,0,0,0,0,0,0l0,.1c0,.09,0,.14-.07.14l-.06,0h0l.07.11.19.23-.35-.2c.05.23.12.35.21.35h0s0,0-.06,0a.14.14,0,0,1-.09,0l-.09,0c-.11,0-.19.12-.22.36a.24.24,0,0,0,0,.11v0h0l-.09-.06-.08,0s0,0,0,0a.5.5,0,0,0,0,.17c0,.07.05.1.09.1l0,0h0v0a.19.19,0,0,1-.16.1s-.06,0-.09.09a2.85,2.85,0,0,0-.08.28,1.44,1.44,0,0,1-.18.57.66.66,0,0,0-.14.38c0,.14-.05.21-.1.22s-.05,0-.05,0h0c.07,0,.1,0,.1.09a.43.43,0,0,0,0,.05.41.41,0,0,0,0,.07.22.22,0,0,0,.1.16s0,0,0,.06l-.07,0-.1,0s0,0,0,0a.26.26,0,0,0,0,.07.39.39,0,0,1,0,.06s0,0,0,0l0,0h0s0,0,0,.07v.07a.62.62,0,0,1,0,.12c0,.08,0,.13-.07.15a.07.07,0,0,0,0,.07,0,0,0,0,0,0,0l.1,0h.06l-.07.1a.76.76,0,0,0-.2.31.49.49,0,0,0,0,.1.74.74,0,0,1,.09.38c0,.08,0,.13-.06.13s-.05,0-.05-.12v0a.2.2,0,0,0,0-.07c0-.05,0-.07,0-.07s-.06.06-.06.17a1.52,1.52,0,0,0,.11.52.73.73,0,0,1,.06.22c0,.08,0,.12-.08.12l-.13,0s0,0,.07.1a.5.5,0,0,1,.13.19.29.29,0,0,1-.09.16l0,0,.1,0s.08.08.1.25a.53.53,0,0,0,0,.14h.17c.06,0,.12.06.17.17s.09.11.11.11h0s0,0,0,.09,0,.12-.07.12a.07.07,0,0,1-.07-.06s-.06-.07-.13-.07-.08,0-.08,0h0l.1.09a1.93,1.93,0,0,0,.41.28s0,0,0,0l0,0,0,0c.33.47.6.71.8.71,0,0,0,0,0,0a.9.9,0,0,0-.17-.21c-.16-.16-.24-.28-.24-.33s.1,0,.19.12l.57.58h.56l.76,0c.41,0,.61,0,.61.07s-.14.12-.43.17a6.06,6.06,0,0,1-1,.07A5.26,5.26,0,0,1,249.22,43.53Zm-9.79-3.3a7.82,7.82,0,0,0,1.37-.76,24.3,24.3,0,0,0,2.84-2.54c1.18-1.2,2.24-2.35,3.16-3.47a6.27,6.27,0,0,0,1.39-2.06c0-.12-.17-.17-.5-.17a11,11,0,0,0-1.34.21,9.26,9.26,0,0,0-1.09.25s-.19.15-.56.34a14.89,14.89,0,0,0-2.17,1.31,15.7,15.7,0,0,0-1.63,1.45,4.33,4.33,0,0,0-1,1.12l-1,1.33a2.19,2.19,0,0,1-.19.38,15.3,15.3,0,0,0-.7,1.41,3.08,3.08,0,0,0-.29,1.2.38.38,0,0,0,.08.26.47.47,0,0,0,.31.07A3.27,3.27,0,0,0,239.43,40.23ZM249,42.12s-.05-.07-.14-.11l-.15,0,.06.13a.22.22,0,0,0,.16.1S249,42.18,249,42.12Zm.37-.72a3.37,3.37,0,0,1,0-.53,1,1,0,0,1,.09-.57.46.46,0,0,0,.05-.23,1.9,1.9,0,0,1,.19-.83.59.59,0,0,0,0-.14s0,0-.1,0l0,0s0,0,0,0,.12-.09.12-.12a.17.17,0,0,0,0-.05s0,0,0,0a1.12,1.12,0,0,1,.11-.34.52.52,0,0,0,.1-.22s0-.06,0-.06l-.06,0,0,0v0a.17.17,0,0,1,0-.07.12.12,0,0,1,.08,0l0,0h0a.15.15,0,0,0,.11-.07s0,0-.11-.07-.09,0-.09,0l0,0a.23.23,0,0,0,.12-.19.29.29,0,0,1,.09-.21.16.16,0,0,0,.05-.12,0,0,0,0,0,0,0v0s.05-.09.14-.12.11-.06.11-.1a.51.51,0,0,0,0-.09.37.37,0,0,1-.08-.21c0-.08,0-.12.08-.12h0a.08.08,0,0,0,.08-.05.79.79,0,0,1,.16-.18c.06,0,.1-.08.1-.11a.09.09,0,0,0,0-.06.1.1,0,0,1-.07-.1.1.1,0,0,1,0,0l0,0s-.06-.11-.17-.21-.13-.14-.13-.18,0-.06.1-.06.11,0,.11,0h0c-.05,0-.08.06-.08.09a.12.12,0,0,0,.06.09.37.37,0,0,0,.15,0,.31.31,0,0,0,.28-.17.64.64,0,0,0,.11-.39.83.83,0,0,0-.11-.39.46.46,0,0,0,0-.09l.05.06c.08.11.16.17.22.17a.16.16,0,0,0,.15-.09,1.13,1.13,0,0,0,.09-.25c0-.13.08-.21.11-.22s.1-.07.1-.1a0,0,0,0,0,0,0l0,0s0,0,.07-.07a.53.53,0,0,0,.2-.31,2,2,0,0,1,.49-.7l.1-.11a1.2,1.2,0,0,1,.3-.55.72.72,0,0,0,.14-.23s0,0,0,0a.85.85,0,0,0-.12.13c-.1.09-.15.14-.17.14h0a.24.24,0,0,1,.07-.13.22.22,0,0,0,.06-.13.27.27,0,0,0,0-.08h0v0l0,0a0,0,0,0,0,0,0l0,0c.2-.23.33-.34.38-.34h0a.71.71,0,0,1-.09.13.88.88,0,0,0-.14.22v0s.1,0,.17-.12a.35.35,0,0,0,.12-.23l0,0a.11.11,0,0,1,0-.05.14.14,0,0,1,0-.13.13.13,0,0,1,.07,0h0a.13.13,0,0,1,0,.07l0,.06h0s.08,0,.15-.1a.3.3,0,0,0,.11-.18s0,0,0,0l0,0h-.06c-.06,0-.08,0-.08-.07a.6.6,0,0,1,.15-.29c.1-.12.18-.19.24-.19s0,0,0,0,0,0,0,0-.07.07-.07.09,0,0,.08.07,0,0,0-.06,0-.06,0-.06,0,0,0,0h0s.06,0,.06-.13a.1.1,0,0,0-.1-.11l-.11,0s0,0,0,0,.07-.1.22-.22a1.46,1.46,0,0,0,.42-.41c0-.08.06-.13.1-.13l0,0h.06a.23.23,0,0,0,.21-.13,1.46,1.46,0,0,0,.11-.3q0-.15.06-.15c.07,0,.15.25.22.74a1,1,0,0,0-.13.14c-.5.6-.8.9-.88.9h0v0a0,0,0,0,0,0,0s0,0,0,0a.13.13,0,0,1,0,.06.66.66,0,0,1-.17.34c-.11.15-.2.22-.26.22s-.08,0-.08.05h0v0a14.65,14.65,0,0,1-1.25,1.92,12.37,12.37,0,0,0-1,1.52s-.07.14-.17.37a17.88,17.88,0,0,0-.79,1.75.23.23,0,0,1,0,.07A13.23,13.23,0,0,1,249.9,39s0,0,0,0a1.65,1.65,0,0,0-.1.27c-.08.61-.16,1.21-.23,1.79,0,.33-.05.49-.09.49S249.41,41.53,249.39,41.4Z"/><path class="cls-22" d="M256.26,43.61a1.6,1.6,0,0,1-.21-1,5.24,5.24,0,0,1,.2-1.33c.14-.5.24-.74.29-.74h0s0,0,0,0l0,0a.2.2,0,0,1,0-.07,5.37,5.37,0,0,1,.39-1.27c.27-.67.54-1.31.83-1.92s.48-.9.56-.9.07,0,.07,0h0q-.09,0-.09-.09a.27.27,0,0,1,.07-.17q.06-.09.12-.09l0,0s0,0,0-.07v0a.13.13,0,0,1,0-.06.4.4,0,0,1,.09-.23c.06-.09.1-.13.12-.13h0v0a.8.8,0,0,0,0,.16s0,0,0,0,.11-.09.19-.29l-.09,0h0s0,0,0,0A.84.84,0,0,1,259,35l.52-.66a2.65,2.65,0,0,0,.41-.59v0s-.08.07-.17.21-.17.24-.2.24,0,0,0,0a2.1,2.1,0,0,1,.45-.74,4.27,4.27,0,0,0,.35-.54c.17-.35.29-.53.38-.53s0,0,0,.06a3,3,0,0,1-.36.54,3.36,3.36,0,0,0-.43.68,3,3,0,0,0,.51-.65,3.84,3.84,0,0,0,.45-.74l0,0a.23.23,0,0,1-.1.05s0,0,0,0a3.56,3.56,0,0,1,.8-1.16c.54-.63,1.11-1.24,1.7-1.82s1-.88,1.08-.88,0,0,0,0l.07,0a.68.68,0,0,0,.2,0l.1,0s0,0,0,0a.18.18,0,0,1,0,.06.31.31,0,0,0,0,.08,0,0,0,0,0,0,0h.06l.08,0a0,0,0,0,1,0,0,.13.13,0,0,1,0,.06.14.14,0,0,0,.08.14l0,0v0l0,.06s0,0,.06,0a.19.19,0,0,0,.12-.07.24.24,0,0,1,.16-.09s0,0,0,0l0,0s-.07.07-.07.09.06.06.19.1a1.38,1.38,0,0,1,.71.65,1.88,1.88,0,0,1,.3,1,0,0,0,0,1,0,0,.91.91,0,0,0,.2-.43.41.41,0,0,0,0-.07h0a0,0,0,0,1,0,0,.21.21,0,0,1,.16.11.42.42,0,0,1,.08.29,1.52,1.52,0,0,1-.34.71c-.22.33-.37.5-.45.5s-.08,0-.08-.1a.24.24,0,0,1,.15-.1.19.19,0,0,0,.13-.09l0,0h-.1s0,0-.07,0h0s-.09.05-.15.16a.52.52,0,0,0-.1.22s0,0,0,0H266s.06,0,.06.08-.07.16-.19.16l-.1,0a0,0,0,0,0,0,0l0,.1c0,.12-.14.19-.41.19h-.09c-.06,0-.09,0-.09,0s.08.07.25.1l0,0s0,0,0,.06-.06.09-.17.15a.91.91,0,0,0-.23.17.26.26,0,0,0-.08.19s0,0,0,0a.1.1,0,0,0,0,0,.09.09,0,0,1-.06.08.14.14,0,0,1-.09,0,0,0,0,0,1,0,0v0a0,0,0,0,0,0,0c-.09,0-.14.07-.14.21v.07a.25.25,0,0,1,0,.07c0,.07,0,.1-.07.11a.07.07,0,0,0-.06.07.11.11,0,0,0,0,0,.52.52,0,0,1,0,.11h0s0,0,0,0-.13.1-.28.28a1.38,1.38,0,0,0-.23.34,2.45,2.45,0,0,0,.61-.41l1.39-1.13c.58-.49.89-.74.91-.75a.16.16,0,0,0,.14-.13.11.11,0,0,1,.09-.07,1,1,0,0,0,.34-.18,1.06,1.06,0,0,0,.31-.25s.11-.09.31-.18.44-.25.44-.3,0,0,0,0h0l0,0s0,0,0-.05a1.16,1.16,0,0,1,.65-.31.22.22,0,0,0,.1,0,2.71,2.71,0,0,1,1.08-.36.21.21,0,0,1,.21.12s0,.06.06.06h0l.05,0c.11,0,.24.14.42.42a2.35,2.35,0,0,1,.33.8l.1.5a24.2,24.2,0,0,1,.69,4.33c0,.29,0,.43-.09.43s-.27-.15-.34-.44a11.92,11.92,0,0,1-.22-1.4c-.08-.59-.15-1.07-.22-1.45a2.84,2.84,0,0,0-.34-1,.68.68,0,0,0-.61-.4,2.7,2.7,0,0,0-1.09.28,14,14,0,0,0-1.35.67,2.46,2.46,0,0,1-.33.17,13,13,0,0,0-1.35,1,12.22,12.22,0,0,1-1.28,1,2.76,2.76,0,0,0-.39.4c-.44.51-.71.76-.82.76H264s0,0,0,0-.14.23-.42.53-.45.44-.51.44a.12.12,0,0,0-.11.08c0,.15-.35.53-1,1.16a2.84,2.84,0,0,0-.28.28h0s.07,0,.07.06,0,0-.1.07h-.07l0,0a0,0,0,0,0,0,0h0a.08.08,0,0,1,0,0,.26.26,0,0,1-.11.18c-.08.08-.12.12-.14.12v0a.17.17,0,0,0,0-.07h0a.15.15,0,0,0-.08,0,.16.16,0,0,0-.05.11v0l0,0c0,.07-.13.24-.37.52a1.07,1.07,0,0,0-.24.31s0,.07-.11.11a.21.21,0,0,0-.14.18c0,.07,0,.13-.16.2a.5.5,0,0,1-.28.11s0,0,0,.07a.08.08,0,0,0,.07.08l0,0q0,.14-.3.21l-.07,0,0,0q.09.06.09.09c0,.06-.11.13-.32.2s-.3.11-.3.16,0,0,0,0,.05,0,.1-.06a.25.25,0,0,1,.14-.07s.05,0,.05.06-.37.53-1.11,1.22a3,3,0,0,0-.49.51s0,0,0,0-.1.13-.28.27l.14,0,.13,0v0s-.06.07-.18.12a2.68,2.68,0,0,1-.69.06A1,1,0,0,1,256.26,43.61Z"/><path class="cls-22" d="M275.63,43.16A3.35,3.35,0,0,1,275,40.9a6.2,6.2,0,0,1,.13-1.17,6.29,6.29,0,0,0,.12-1.08l.05.09c.09.14.15.22.17.22v0a2,2,0,0,0-.17-.53l.28.34,0-.1a.94.94,0,0,1-.06-.23,0,0,0,0,1,0,0l.06,0,0,0s0,0,0,0l0-.07a.15.15,0,0,1,0-.08.1.1,0,0,1,0-.07.27.27,0,0,0,.07-.2,9.93,9.93,0,0,1,.47-1.21c.31-.74.68-1.56,1.12-2.47s.87-1.72,1.3-2.44a5.08,5.08,0,0,1,.56-.84.07.07,0,0,0,0-.06s0,0,0,0V30.9a6.58,6.58,0,0,1,.67-1.08,3.52,3.52,0,0,0,.31-.48.48.48,0,0,1,.13-.24c.07-.09.14-.14.19-.14h0l.07,0a0,0,0,0,0,0,0h0a.69.69,0,0,1,.1-.27l.05-.11v0l-.07,0h0c0-.14.3-.51.91-1.14a2.56,2.56,0,0,0,.24-.27h0v0s0-.07.11-.12.18-.2.18-.29,0-.05,0-.05-.07.05-.17.17-.11.12-.12.12h0a1.07,1.07,0,0,1,.18-.27c.12-.16.19-.23.22-.23s0,0,0,.07a.2.2,0,0,0,0,.07s0,0,0,0,.27-.24.62-.71.83-1.13,1.42-1.95.86-1.19,1-1.3.06-.07.17-.19c1.52-1.79,2.39-2.69,2.6-2.69s.1,0,.1.06,0,0,0,0v0a0,0,0,0,0,0,0l.07,0h.08s.05,0,.06.06a.11.11,0,0,0,.11.07c.06,0,.16.07.32.22s.23.25.23.3h0a.46.46,0,0,0,.06.16q.06.12.09.12s0,0,0,0,0,0,0,0,.1.07.18.21a1,1,0,0,0,.17.23c.09,0,.13.06.13.11s0,.06-.16.07-.26.09-.29.18a.28.28,0,0,1-.27.19h0s0,0,0,.11V22a.55.55,0,0,0,0,.09.06.06,0,0,1,0,0h0s0-.06-.07-.06a.19.19,0,0,0-.16.11,1.61,1.61,0,0,0-.13.33c-.06.18-.11.28-.16.28h-.08c-.05,0-.07,0-.07,0h0v0a.52.52,0,0,1-.11.21c-.08.09-.13.14-.15.14h0a.39.39,0,0,1,0-.06.34.34,0,0,0,0-.09s0-.05,0-.05a1.69,1.69,0,0,0-.31.39l0,0c.07,0,.1.05.1.09s0,.06-.07.06h-.07l-.06,0s0,0,0,0h0v.09s0,.06,0,.06h0a.26.26,0,0,0-.16.09c-.07.07-.1.12-.1.16v0s0,.08-.12.14-.11.1-.11.14v0s-.08.11-.24.19l-.07,0,.17.07.17.09a0,0,0,0,1,0,0h-.06l-.1,0a0,0,0,0,0,0,0v.09l.06.22-.12-.1-.19-.15h0l.07.1a.58.58,0,0,1,.07.11,2.06,2.06,0,0,1-.35.55,3.4,3.4,0,0,0-.35.53v0h0s0,.06-.14.13-.31.29-.31.38a0,0,0,0,0,0,0h0s.07-.06.07-.09v0s.06-.09.17-.18.21-.22.21-.27h0a0,0,0,0,1,0,0c0-.05,0-.09.14-.13a.39.39,0,0,0,.18-.18,2.63,2.63,0,0,1,.46-.62.44.44,0,0,0,.1-.15.24.24,0,0,1,.11-.16c.07,0,.1-.06.1-.14a.28.28,0,0,0,0-.08l0-.07q0-.09.06-.09s.06,0,.06.05a.13.13,0,0,1,0,.07s0,0,0,0a0,0,0,0,0,0,0l0,0a.58.58,0,0,0,.12-.25c0-.11.1-.17.14-.17h.05s0,0,0,0l0-.09c0-.07,0-.11.14-.13a.37.37,0,0,0,.18-.21.22.22,0,0,1,.1-.14.31.31,0,0,0,.14-.2s0-.08,0-.08.19-.14.4-.42a1.48,1.48,0,0,0,.31-.53h0v0l.05,0a0,0,0,0,0,0,0s.1,0,.15-.12.11-.13.14-.13l.06,0h0l0,0v0c0-.06.05-.12.14-.2s.14-.13.14-.18v0a.13.13,0,0,1,0-.07s0,0,0,0a.24.24,0,0,1,.16.09.37.37,0,0,1,.08.25v.21a3.76,3.76,0,0,1-.37.47,3.78,3.78,0,0,0-.69,1h0s.24-.29.69-.87a3.5,3.5,0,0,0,.68-1.07c0-.08,0-.12.07-.12s.14.1.17.29a8.31,8.31,0,0,1-1.23,2c-.81,1.15-2,2.74-3.43,4.74l-2,2.79a5.7,5.7,0,0,0-.64,1h.06l.11,0s0,0,0,0,0,0,0,0a.12.12,0,0,1-.12.09c-.05,0-.14.07-.28.22s-.2.25-.2.3h0a.89.89,0,0,0,.33-.18q1.05-.7,4-2.22A20,20,0,0,1,290,29c.28,0,.41.37.39,1.1v.54c0,.25,0,.37,0,.37h.05a0,0,0,0,1,0,0,.26.26,0,0,1-.08.16l-.13.15c-.05.08-.1.13-.12.16a12.51,12.51,0,0,1-2.73,1.74c-.36.2-.54.3-.54.31a6.11,6.11,0,0,0,1.51-.71,14.84,14.84,0,0,0,1.83-1.16.68.68,0,0,1,.31-.18,0,0,0,0,1,0,0c0,.06-.06.16-.19.31a7.17,7.17,0,0,1-2.27,1.5,42.48,42.48,0,0,1-4.49,1.82,9.3,9.3,0,0,0-2.49,1.21,1.83,1.83,0,0,0-.9,1.32.88.88,0,0,0,.21.36c.14.17.23.26.27.26l0,0s0,0,0,0l.11.08a2.16,2.16,0,0,0,.7.44l.09,0a2.66,2.66,0,0,0,.62.21l.48.11a.83.83,0,0,0,.22,0h.14a.05.05,0,0,1,0,0,.27.27,0,0,0,0,.08h0a5.51,5.51,0,0,1,1.24-.1,19.11,19.11,0,0,0,4.28-.59,12.43,12.43,0,0,0,3.52-1.4,6.12,6.12,0,0,1,.75-.39l.08,0a.08.08,0,0,0,0-.06s0,0,0,0,.05,0,.09.11a.32.32,0,0,1,.07.18c0,.06,0,.08-.07.08l-.12,0-.11,0s0,0,0,0h0a.37.37,0,0,0,.17.06c.19,0,.29.09.29.16s-.14.25-.41.49a9.34,9.34,0,0,1-1.19.83,17,17,0,0,1-1.82.93,15,15,0,0,1-3,.91,14.49,14.49,0,0,1-2.93.35c-2.2,0-3.59-.87-4.16-2.59a4.61,4.61,0,0,0-.28-.77,8.92,8.92,0,0,0-.84,1.3c-.53.86-.87,1.45-1,1.76a10.46,10.46,0,0,0-.6,1.42A3.63,3.63,0,0,0,276.8,43c0,.32.11.49.31.49a.9.9,0,0,0,.41-.17,1.27,1.27,0,0,1,.68-.24.6.6,0,0,1,.24.05.15.15,0,0,1,.09.13q0,.21-.39.42a2,2,0,0,1-.89.2A2.08,2.08,0,0,1,275.63,43.16Zm1.47-3.78a1,1,0,0,1,.11-.27,1,1,0,0,0,.14-.37.13.13,0,0,0,0-.06h0s0,0,0,0h.05l0,0c.05,0,.12-.09.19-.24a1,1,0,0,0,.1-.36s0,0,0,0-.08,0-.14.14-.06.09-.07.09,0,0,0-.09.08-.15.24-.22a11,11,0,0,0,1.52-2.35h0a.89.89,0,0,1-.21.07h0s0-.06.12-.13.2-.19.2-.22h0a.08.08,0,0,1-.05-.08.17.17,0,0,1,.1-.15h0l0,0s0,0,0-.11v0s0-.09.1-.12a.34.34,0,0,0,.17-.11h0l0,0-.07,0s0,0,0,0a.57.57,0,0,1,.2-.31h0a.15.15,0,0,1,0,.06s0,0,0,0v0l.06,0a.12.12,0,0,0,.06-.1s0,0,0,0v0a3.35,3.35,0,0,1,.44-.86c.29-.48.46-.73.52-.73v0s.05,0,.05-.11v0c0-.06,0-.09.07-.09H281s0,0,0,0,0,0,0,0v0a5.86,5.86,0,0,1,.65-1.11,5.36,5.36,0,0,0,.45-.76s0,0,.1-.09.12-.13.12-.15a.07.07,0,0,0,0-.06l0,0s0,0,0,.05,0,.06-.05.06l0,0h0s0,0,0,.07v.08a.11.11,0,0,1,0,.05s0,.07-.08.08a.2.2,0,0,0-.11.06.29.29,0,0,0,0,.17.72.72,0,0,1-.16.21c-.14.16-.21.26-.21.31v0l0,0s0,0,0,0a.69.69,0,0,0-.25.31c-.08.16-.15.24-.2.24h0s0,0,0,.11-.05.17-.09.17h0l0,0q-.12,0-.21.45a2,2,0,0,1-.16.23q-.13.21-.18.21h-.05s-.05,0-.05,0l0,.06a.07.07,0,0,1,0,0s0,0-.07,0H280q-.09,0-.09,0a.27.27,0,0,1,.05.13c0,.08-.05.13-.14.15a.21.21,0,0,1-.13-.07h0l0,.07a.82.82,0,0,1,.13.3c0,.12-.05.17-.15.17a.37.37,0,0,1-.22-.11h0a.15.15,0,0,1,0,.07,1.25,1.25,0,0,1-.1.4c-.06.18-.12.27-.17.27h-.05c-.07,0-.11.13-.13.38s0,.3-.08.3l-.06,0-.1,0c-.05,0-.14.11-.26.34s-.21.29-.24.29h-.06v0a.23.23,0,0,1,0,.09.28.28,0,0,1-.08.15.85.85,0,0,0-.2.32c-.06.15-.13.23-.2.23h0s-.07,0-.09.08a.41.41,0,0,0,0,.16s0,.05,0,.05l.05-.07.06-.05s0,0,0,0a.57.57,0,0,1-.14.25,1.12,1.12,0,0,0-.22.48v.11c0,.05,0,.08,0,.08l-.07,0h-.09a.15.15,0,0,0,0,.06.18.18,0,0,1,0,0s0,0,0,0A.36.36,0,0,1,277,38l-.06,0h0l0,.08a.65.65,0,0,1,.12.26s0,0,0,.07a.23.23,0,0,0-.07.15v.06s0,.05,0,.05l.11-.11.1-.1h0a1.05,1.05,0,0,1-.07.23,1.66,1.66,0,0,0-.08.22s0,0,0,0l0,0c0-.06.08-.09.1-.09s0,0,0,0a.07.07,0,0,1,0,.05c0,.08-.08.14-.23.16s-.13,0-.13-.14a.28.28,0,0,1,0-.08l0-.08a.19.19,0,0,0-.09-.19s0,0,0,.09-.07.31-.14.35a0,0,0,0,1,0,0,.36.36,0,0,1,0-.11.87.87,0,0,0,0-.14l0,0s0,0-.07.14a1,1,0,0,0,0,.31q0,.21.06.21t.24-.27h0s0,0,0,0a.82.82,0,0,0-.05.22.29.29,0,0,0,0,.17.1.1,0,0,0,.1.07h0C277.05,39.48,277.08,39.44,277.1,39.38Z"/><path class="cls-22" d="M305.74,42.22A6.36,6.36,0,0,1,302,43.75a3.13,3.13,0,0,1-.67-.06,5.24,5.24,0,0,1-.75-.26l-.53-.2a4.23,4.23,0,0,1-2-1.46,4.7,4.7,0,0,1-.82-1.72,11,11,0,0,1-.26-2c0-.09,0-.16,0-.2s-.07.2-.09.28l0,.07s0,0,0-.12a5.11,5.11,0,0,1,.28-1.41c.18-.62.33-1.07.44-1.35a.18.18,0,0,1,.1-.14.2.2,0,0,0,.08-.17.16.16,0,0,1,0-.11l.09-.06a.42.42,0,0,0,.21-.16c.05-.1.1-.14.14-.14h0l0,0a.22.22,0,0,1-.06.13,4.42,4.42,0,0,0-.78,1.63,6.41,6.41,0,0,0-.29,1.55s0,0,0,0l.07-.23A11.72,11.72,0,0,1,298.74,34a21.27,21.27,0,0,1,1.91-2.24,1.33,1.33,0,0,0,.24-.27,8.92,8.92,0,0,0-1.21,1.14,7.2,7.2,0,0,0-1.29,1.6c-.06.12-.11.18-.17.18s-.05,0-.05-.08a.07.07,0,0,1,0-.06.39.39,0,0,0,.19-.22,7.74,7.74,0,0,1,1.18-1.51A13.47,13.47,0,0,1,301.31,31a11.93,11.93,0,0,1,2.6-1.47,6.52,6.52,0,0,1,2.44-.64,2.14,2.14,0,0,1,1.26.39,3.83,3.83,0,0,1,1.07,1.28,1.31,1.31,0,0,0,.45.42.83.83,0,0,1,.24.18.4.4,0,0,1,.07.26,2.68,2.68,0,0,1-1,1.59,15.4,15.4,0,0,1-2.55,2,20.16,20.16,0,0,1-3.23,1.66h0a1.32,1.32,0,0,0-.51.27,7.4,7.4,0,0,0-.62.84l0,.06a10.3,10.3,0,0,0-.92,1.67,4.22,4.22,0,0,0-.36,1.73,2.92,2.92,0,0,0,.18,1.17.74.74,0,0,0,.75.39,3.39,3.39,0,0,0,1.16-.14l.06,0s0,0,0,.07,0,.06,0,.06l0,0a.55.55,0,0,1,.31-.13,5.2,5.2,0,0,0,1.41-.6h0a8.27,8.27,0,0,0,1.27-.76h.05s0,0,0,0-.12.13-.38.31-.57.43-.57.51h0a.51.51,0,0,0,.24-.14c.12-.1.2-.16.24-.16l.05,0s0,0,0,0a5,5,0,0,0,.54-.45,2.88,2.88,0,0,0,.52-.5.07.07,0,0,0,0,0s-.06,0-.06-.05a.05.05,0,0,1,0,0,.05.05,0,0,1,.05,0,.16.16,0,0,1,.09,0s0,0,.05,0,.23-.12.47-.35.35-.37.35-.44h0l0,0s-.13.1-.29.28-.43.45-.52.45,0,0,0,0a3.07,3.07,0,0,1,.41-.41,4.52,4.52,0,0,0,.82-.87c0-.05,0-.07.08-.07s0,0,0,.11a.78.78,0,0,1,0,.14.11.11,0,0,0,0,0h0l.24-.56s0,0,0,0v0a.08.08,0,0,0,0,0s0,.06.09.06.11,0,.12-.06V39c0-.12,0-.18.07-.18h0l0,0s.07,0,.08-.1.06-.09.1-.09a0,0,0,0,0,0,0h0s0,0,0-.06a.35.35,0,0,1,.1-.18l.12-.17a5.19,5.19,0,0,1,.36-.47c.08-.09.15-.14.21-.14s.07,0,.07.12a1,1,0,0,1-.16.42A13.25,13.25,0,0,1,305.74,42.22Zm-2.3-6.63a10.89,10.89,0,0,0,1.26-1,17.57,17.57,0,0,0,1.77-1.69,4.16,4.16,0,0,0,.93-1.25.53.53,0,0,1,0-.19l0,0,0,0v0c.07-.07.1-.11.1-.14s0,0,0,0a1.71,1.71,0,0,0-.71.37,12.14,12.14,0,0,0-1.17,1l-1.54,1.53a.16.16,0,0,1-.07.07l0,.07c-.16.16-.42.48-.79.94a3.2,3.2,0,0,0-.56.83l0,0A3.15,3.15,0,0,0,303.44,35.59Z"/><path class="cls-22" d="M315.5,45.69a.55.55,0,0,1-.36-.19s-.05,0-.06,0h0a1.61,1.61,0,0,1-.49-.31,1.27,1.27,0,0,0-.32-.22,1.94,1.94,0,0,1-.35-.46l-.14-.2a2.37,2.37,0,0,1-.59-1.32,9.42,9.42,0,0,1-.26-2.18,10,10,0,0,1,.25-2c.16-.8.3-1.36.4-1.68.18-.57.41-1.29.7-2.15,0,0,0,0,0,0a17.67,17.67,0,0,1,1.54-3.23c1-1.92,1.92-3.48,2.7-4.7a4.6,4.6,0,0,0,.59-1s0,0,0,0l-.1.06a.3.3,0,0,1-.11.07s0,0,0-.05-.09.08-.19.24a.76.76,0,0,0-.16.33s0,0,0,0h0a.24.24,0,0,1-.13,0h0s0,0,0,0a.62.62,0,0,0,0,.14h0s0,0,0,0h0l-.72,1,0,.06-.75,1.09,0,0s0,0,0,0a3.36,3.36,0,0,1-.32.59c-.48.83-.9,1.59-1.27,2.29a3.49,3.49,0,0,1-.38.65.37.37,0,0,0-.05.15.12.12,0,0,1-.09.12v0a9.21,9.21,0,0,1,.77-1.63,18.11,18.11,0,0,1,1.11-1.88.57.57,0,0,0,.16-.27h0a0,0,0,0,1,0,0,10.21,10.21,0,0,1,1.1-1.81,8.08,8.08,0,0,0,.45-.69.51.51,0,0,1,.14-.24.29.29,0,0,0,.09-.13s0,0-.09,0-.83.11-2,.32l-2.75.5-.2.05a.85.85,0,0,1-.23.06h-.1l-.07,0s-.06,0-.06,0-.24.12-.72.23a4.86,4.86,0,0,1-.95.18l-.07,0h-.05s-.15.09-.42.18-.87.24-1.77.47l-.08-.05-.24-.14a.18.18,0,0,1-.06-.14,4.32,4.32,0,0,1,.19-.84,4.12,4.12,0,0,0,.09-.42.2.2,0,0,0,0-.07v0c0-.11.3-.31.91-.59a12.37,12.37,0,0,1,2.91-1,40.31,40.31,0,0,1,4.62-.71l1.39-.12H319a5.41,5.41,0,0,0,.92-.13,1.22,1.22,0,0,0,.48-.33c.14-.17.39-.51.73-1l.2-.31c.36-.54.71-1.05,1.07-1.53a4,4,0,0,1,.59-.72,3.15,3.15,0,0,1-.35.57,2.39,2.39,0,0,0-.3.45h0s0,0-.07.06-.13.1-.13.15a.06.06,0,0,1,0,0,0,0,0,0,1,0,0s-.06,0-.06,0l0,0a.43.43,0,0,0,0,.05s0,0,0,0-.07,0-.1.07a1.73,1.73,0,0,0-.18.26c-.21.34-.4.64-.59.89a4.4,4.4,0,0,0-.73,1.15s0,.05,0,.05.18-.13.36-.39.45-.66.79-1.19.76-1.15,1-1.5a2.34,2.34,0,0,1,.54-.61l.24-.13a1.86,1.86,0,0,1,.53.52,1.08,1.08,0,0,1,.25.62l0,0v0a.09.09,0,0,0,0,0,.52.52,0,0,1,.2.32.63.63,0,0,0,.17.34.27.27,0,0,1,0,.15,4.81,4.81,0,0,1-.3,1.3,2.06,2.06,0,0,0-.11.36l0,0c.08,0,.17-.11.25-.31a5.42,5.42,0,0,0,.27-.81,1.24,1.24,0,0,1,.14-.42s.07,0,.1.09a.49.49,0,0,1,0,.24,2.67,2.67,0,0,1-.13.67,3,3,0,0,0-.09.55s0,.06,0,.06,0,0,0,0,.06-.09.11-.09l.13,0,.17,0a.14.14,0,0,0,.09,0,.16.16,0,0,1,.12,0h0a5.1,5.1,0,0,0,.86,0,4.22,4.22,0,0,1,1,.09,1.47,1.47,0,0,0,.27,0,.55.55,0,0,0,.28-.07l0,0h0a8.16,8.16,0,0,0,1.53.17,1.56,1.56,0,0,1,.72.16h.08a.47.47,0,0,1,.17,0,17.69,17.69,0,0,1,5,1.52,1.3,1.3,0,0,1,.43.52,1.56,1.56,0,0,1,.16.7,1.25,1.25,0,0,1-.26.81.64.64,0,0,1-.46.31s-.06,0-.06-.05a.67.67,0,0,1,.12-.27,1,1,0,0,0,.19-.49c0-.38-.46-.7-1.4-1a19,19,0,0,0-3.43-.53c-1.35-.11-2.68-.17-4-.17-.68,0-1.49,0-2.42.09l-.6,0c-1.3,2.1-2.45,4-3.43,5.71s-1.84,3.33-2.6,4.9a33.65,33.65,0,0,0-1.79,4.33,11.53,11.53,0,0,0-.65,3.49,3.79,3.79,0,0,0,.22,1.26,1.32,1.32,0,0,1,0,.2s.14.07.42.13.61.15.61.21-.12,0-.35,0A2.94,2.94,0,0,1,315.5,45.69Z"/></g></g></svg>